This XML file does not appear to have any style information associated with it. The document tree is shown below.
<svg width="1409" height="1409">
<path style="fill:#ffffff; stroke:none;" d="M0 0L0 1409L1409 1409L1409 0L0 0z"/>
<path style="fill:#ffc933; stroke:none;" d="M1250 52C1245.78 61.7729 1238.7 69.0586 1230 75L1230 76C1238.5 82.1106 1246.95 89.6241 1250 100L1272 76L1272 75C1263.38 69.1151 1256.18 61.6858 1252 52L1250 52z"/>
<path style="fill:#ff7991; stroke:none;" d="M1111 75.5586C1093.62 80.0496 1101.57 106.873 1119 101.347C1134.95 96.2904 1126.93 71.4431 1111 75.5586z"/>
<path style="fill:#ffb6de; stroke:none;" d="M994.044 124.746C984.79 128.38 990.932 141.922 999.945 138.396C1008.95 134.873 1003.05 121.211 994.044 124.746z"/>
<path style="fill:#5b21ff; stroke:none;" d="M1132 163L1132 164L1170 180L1170 179L1146 162L1249 136L1249 137C1229.51 142.733 1209.66 158.714 1192 168.85C1187.92 171.191 1174.88 176.322 1173.88 181.213C1173.12 184.895 1177.61 190.074 1179.42 193C1185.25 202.408 1190.8 212.222 1196 222C1204.55 217.629 1210.74 203.892 1216 196C1226.51 180.231 1237.49 164.768 1248 149C1252.67 141.991 1258.98 134.858 1262 127L1177 150.29L1132 163z"/>
<path style="fill:#7d4bff; stroke:none;" d="M1146 162L1170 181L1193 168.85L1249 137C1241.81 134.428 1228.38 140.791 1221 142.627C1195.97 148.852 1170.82 155.01 1146 162z"/>
<path style="fill:#ffc933; stroke:none;" d="M1098 147L1090 156L1099 167L1107 158L1100 147L1098 147M1281 174L1268 189L1268 191L1281 206L1282 206L1295 191L1295 189L1281 174z"/>
<path style="fill:#3a13c1; stroke:none;" d="M1171 181L1165 216C1169.94 214.436 1182.84 208.991 1184.7 203.79C1186.53 198.657 1175.2 183.565 1171 181z"/>
<path style="fill:#ffc933; stroke:none;" d="M990.133 217.028C981.71 221.857 989.48 234.506 997.891 229.82C1006.56 224.993 998.467 212.25 990.133 217.028z"/>
<path style="fill:#4417e1; stroke:none;" d="M1037 338C1043.35 336.144 1044.6 314.367 1046.41 308C1052.92 285.112 1067.06 257.841 1094 257C1092.01 262.884 1089.55 268.733 1089.09 275C1088.64 281.109 1088.43 288.718 1092.65 293.671C1100.02 302.329 1120.78 299.949 1126.99 290.815C1131.28 284.501 1128.39 275.621 1124.36 270C1121.86 266.515 1118.56 263.474 1115 261.105C1110.2 257.917 1104.68 255.838 1099 255C1108.79 238.411 1123.19 220.907 1144 220L1144 217C1128.96 217.31 1115.99 225.573 1106.62 237C1102.89 241.536 1100.11 248.764 1095.61 252.397C1089 257.738 1077.52 255.744 1070 261.529C1047.61 278.754 1040.38 311.433 1037 338z"/>
<path style="fill:#ffffff; stroke:none;" d="M1097.65 259.042C1094.07 261.468 1092.94 269.061 1092.29 273C1089.23 291.283 1104.33 302.994 1120.96 292.005C1134.37 283.14 1119.01 266.629 1110 261.796C1106.92 260.144 1101.1 256.701 1097.65 259.042z"/>
<path style="fill:#1572d1; stroke:none;" d="M1267.22 267.786C1261.87 269.921 1265.57 278.094 1270.77 276.199C1276.26 274.199 1272.75 265.585 1267.22 267.786z"/>
<path style="fill:#f9c2b8; stroke:none;" d="M973 371C966.732 367.509 971.298 360.924 973.753 356C978.764 345.952 986.167 333.872 973.996 325.703C953.631 312.033 928.514 332.146 918.873 349C915.949 354.111 908.261 365.114 911.647 371C917.415 381.027 929.83 389.831 938 398C940.832 400.832 944.736 406.447 949 406.978C953.668 407.56 960.138 401.636 964 399.427C977.939 391.454 994.677 379.211 987.107 360.015C980.584 343.476 974.096 365.102 973 371z"/>
<path style="fill:#ffd73d; stroke:none;" d="M889 359L889 360L899 360C897.908 353.478 893.117 356.52 889 359z"/>
<path style="fill:#ff4326; stroke:none;" d="M899 357C896.386 361.033 891.386 360 887 360L887 361L899 361L899 478L841 478L841 390L840 390L840 478L723 478L723 462L722 462L722 478L697 478L697 479L840 479L840 537L634 537L634 524L633 524L633 537L629 537L629 538L633 538L633 596L611 596L611 597L633 597L633 633L634 633L634 597L751 597L751 624L752 624L752 597L784 597L784 596L634 596L634 538L840 538L840 543L841 543L841 538L846 538L846 537L841 537L841 479L899 479L899 483L900 483L900 479L904 479L904 478L900 478L900 390C900 383.137 896.822 365.005 903 361L899 357z"/>
<path style="fill:#ffd73d; stroke:none;" d="M871 389L899 389L899 361C890.427 361 875.694 361.471 871.603 371.185C869.557 376.045 871 383.781 871 389M900 361L900 389L928 389C924.301 381.067 908.803 362.358 900 361z"/>
<path style="fill:#ff8d31; stroke:none;" d="M870 370L869 389L871 389L870 370z"/>
<path style="fill:#ffd73d; stroke:none;" d="M841 388L841 389L869 389L869 372L841 388z"/>
<path style="fill:#1d1a33; stroke:none;" d="M641 417C661.391 420.842 681.559 444.788 671.721 467C667.955 475.503 659.625 480.502 652 485L661 502C686.448 489.962 710.09 470.546 734 455.576C738.677 452.647 756.141 444.864 756.288 438.907C756.572 427.346 737.072 417.443 728 414.721C710.216 409.387 692.398 419.614 675 415.468C665.731 413.259 662.969 403.91 655.996 398.532C650.378 394.199 644.353 394.441 638 392.305C625.704 388.171 616.127 383.411 603 388.877C589.079 394.672 573.67 403.139 563.174 414.089C545.403 432.628 533.026 467.891 529.428 493C527.998 502.981 535.79 511.851 533.211 521C529.741 533.314 519.887 543.282 514.873 555C505.776 576.258 510.51 606.952 526.439 623.826C528.901 626.434 531.862 628.729 535 630.471C563.649 646.369 570.626 602.053 586.001 589.225C591.698 584.471 599.503 583.872 606 580.623C618.854 574.196 626.932 562.172 628.71 548C631.011 529.659 623.908 503.63 616.381 487C612.434 478.279 601.993 464.779 603.229 455C605.716 435.33 635.53 435.415 641 417z"/>
<path style="fill:#ff682c; stroke:none;" d="M900 389L900 390L930 391L929 388L900 389z"/>
<path style="fill:#ffd73d; stroke:none;" d="M839 389C826.301 398.226 812 400.61 812 418L840 418L839 389z"/>
<path style="fill:#ff682c; stroke:none;" d="M840 389L840 390L899 390L880 389L840 389z"/>
<path style="fill:#ffd73d; stroke:none;" d="M841 390L841 418L869 418L869 390L841 390M871 390L871 418L899 418L899 390L871 390M900 390L900 418L928 418L928 390L900 390M930 390L930 418L958 418C953.388 408.111 938.9 396.269 930 390z"/>
<path style="fill:#ff8d31; stroke:none;" d="M869 391L869 418L841 418L841 419L899 419L899 418L871 418L871 391L869 391M928 391L928 418L900 418L900 419L958 419L958 418L930 418L930 391L928 391z"/>
<path style="fill:#ffb237; stroke:none;" d="M810 407L811 419L840 419L840 418L812 418L810 407z"/>
<path style="fill:#ffd73d; stroke:none;" d="M792 418L792 419L810 419L810 408L792 418z"/>
<path style="fill:#ff682c; stroke:none;" d="M810 408L810 419L790 419L790 420L810 420L810 448L782 448L782 425L781 425L781 448L752 448L752 444L751 444L751 448L744 448L744 449L751 449L751 478L752 478L752 449L781 449L781 478L782 478L782 449L810 449L810 478L811 478L811 449L840 449L840 448L811 448L811 420L840 420L840 419L811 419L810 408z"/>
<path style="fill:#8b6e76; stroke:none;" d="M641 417L641 418L644 418L641 417z"/>
<path style="fill:#ff682c; stroke:none;" d="M958 417L941 419L900 419L900 420L945 420C947.883 420 959.757 421.661 958 417z"/>
<path style="fill:#f9c2b8; stroke:none;" d="M604 452C628.097 452.066 634.025 472.539 619 489C633.887 495.282 664.229 486.995 669 470C651.874 463.28 652.422 444.082 668 436C665.407 427.19 652.771 414.401 642.209 418.618C636.969 420.711 633.096 428.216 628 431.381C619.082 436.92 607.473 441.154 604 452z"/>
<path style="fill:#99797e; stroke:none;" d="M647 418L647 419L650 419L647 418z"/>
<path style="fill:#624f5d; stroke:none;" d="M651.667 419.333L652.333 419.667L651.667 419.333z"/>
<path style="fill:#ff682c; stroke:none;" d="M841 419L841 420L899 420L880 419L841 419z"/>
<path style="fill:#ffd73d; stroke:none;" d="M782 448L810 448L810 420C802.509 420 787.973 417.27 783.028 424.61C779.629 429.655 782 442.037 782 448M811 420L811 448L840 448L840 420L811 420M841 420L841 448L869 448L869 420L841 420z"/>
<path style="fill:#ff8d31; stroke:none;" d="M869 420L869 448L871 448L871 420L869 420z"/>
<path style="fill:#ffd73d; stroke:none;" d="M871 420L871 448L899 448L899 420L871 420M900 420L900 448L928 448L928 420L900 420z"/>
<path style="fill:#ff8d31; stroke:none;" d="M928 420L928 448L930 448L930 420L928 420z"/>
<path style="fill:#ffd73d; stroke:none;" d="M930 420L930 448C940.445 445.068 952.011 428.758 958 420L930 420M752 448L781 448L781 426C772.436 428.729 753.494 438.52 752 448z"/>
<path style="fill:#fca493; stroke:none;" d="M670 471C674.206 458.576 669.628 448.258 669 436C648.221 440.193 654.551 464.868 670 471z"/>
<path style="fill:#cc8076; stroke:none;" d="M669 438L669 442L670 442L669 438z"/>
<path style="fill:#6b3f47; stroke:none;" d="M670 441L670 444L671 444L670 441z"/>
<path style="fill:#8b6e75; stroke:none;" d="M609 443L610 444L609 443z"/>
<path style="fill:#874d4f; stroke:none;" d="M671 445L671 449L672 449L671 445z"/>
<path style="fill:#ffd73d; stroke:none;" d="M747 448L751 445L747 448z"/>
<path style="fill:#ff682c; stroke:none;" d="M841 448L841 449L899 449L880 448L841 448M900 448L900 449L932 449L900 448z"/>
<path style="fill:#ffd73d; stroke:none;" d="M723 478L751 478L751 449C742.967 449.023 727.025 455.03 723.603 463.184C721.869 467.317 723 473.578 723 478z"/>
<path style="fill:#ffb237; stroke:none;" d="M752 449L752 478L753 478L753 450L780 450L780 478L781 478L781 449L752 449z"/>
<path style="fill:#ffd73d; stroke:none;" d="M782 449L782 478L810 478L810 449L782 449z"/>
<path style="fill:#ffb237; stroke:none;" d="M811 449L811 478L812 478L812 450L840 450L811 449z"/>
<path style="fill:#ffd73d; stroke:none;" d="M841 449L841 478L869 478L869 449L841 449M871 449L871 478L899 478L899 449L871 449z"/>
<path style="fill:#ffb237; stroke:none;" d="M900 449L900 450C908.149 450 922.776 447.059 929 453L931 449L900 449z"/>
<path style="fill:#724349; stroke:none;" d="M672 450L672 456L673 456L672 450z"/>
<path style="fill:#ffd73d; stroke:none;" d="M753 450L753 478L780 478L780 450L753 450M812 450L812 478L840 478L840 450L812 450z"/>
<path style="fill:#ff8d31; stroke:none;" d="M869 450L869 478L871 478L871 450L869 450z"/>
<path style="fill:#ffd73d; stroke:none;" d="M900 450L900 478C909.429 477.289 926.585 459.172 928 450L900 450z"/>
<path style="fill:#fca493; stroke:none;" d="M603 452C603.109 457.283 603.993 462.192 606.262 467C608.393 471.514 612.974 486.23 618.107 487.539C625.952 489.539 629.626 473.145 628.659 468C626.2 454.91 614.323 452.001 603 452z"/>
<path style="fill:#aa6561; stroke:none;" d="M672 456L671 469L672 469L672 456z"/>
<path style="fill:#9a6769; stroke:none;" d="M603 458L603 461L604 461L603 458z"/>
<path style="fill:#ffd73d; stroke:none;" d="M721 463L699 477L699 478L722 478L721 463M693 507L722 507L722 479C715.678 479 699.354 476.091 694.603 480.742C690.192 485.06 693 501.103 693 507z"/>
<path style="fill:#ff682c; stroke:none;" d="M722 479L722 537L723 537L723 498L722 479z"/>
<path style="fill:#ffd73d; stroke:none;" d="M723 479L723 507L751 507L751 479L723 479z"/>
<path style="fill:#ff682c; stroke:none;" d="M751 479L751 537L752 537L752 498L751 479z"/>
<path style="fill:#ffd73d; stroke:none;" d="M752 479L752 507L781 507L781 479L752 479z"/>
<path style="fill:#ff682c; stroke:none;" d="M781 479L781 537L782 537L782 498L781 479z"/>
<path style="fill:#ffd73d; stroke:none;" d="M782 479L782 507L810 507L810 479L782 479z"/>
<path style="fill:#ff682c; stroke:none;" d="M810 479L810 537L811 537L811 498L810 479z"/>
<path style="fill:#ffd73d; stroke:none;" d="M811 479L811 507L840 507L840 479L811 479M841 479L841 507L869 507L869 479L841 479z"/>
<path style="fill:#ff8d31; stroke:none;" d="M869 479L869 507L841 507L841 509L869 509L869 514L870 514L871 509L876 508L876 507L871 507L871 479L869 479z"/>
<path style="fill:#ffd73d; stroke:none;" d="M871 479L871 507C881.672 506.654 898.226 489.655 899 479L871 479M900 482L903 479L900 482z"/>
<path style="fill:#ff682c; stroke:none;" d="M691 482C695.032 498.936 692 519.604 692 537L693 537L693 497L691 482z"/>
<path style="fill:#ffd73d; stroke:none;" d="M664 507L692 507L692 483C682.139 486.142 664.133 495.777 664 507z"/>
<path style="fill:#ffffff; stroke:none;" d="M617 488L621 502L660 501L652 486C639.222 489.653 630.098 493.044 617 488z"/>
<path style="fill:#ffc017; stroke:none;" d="M622 502L629 530L661 501L622 502z"/>
<path style="fill:#ff682c; stroke:none;" d="M662 501L663 507L653 508L653 509L663 509L663 537L664 537C664 529.348 667.763 506.036 662 501z"/>
<path style="fill:#7f6227; stroke:none;" d="M621.333 502.667L621.667 503.333L621.333 502.667z"/>
<path style="fill:#ffd73d; stroke:none;" d="M655 506L655 507L663 507L663 502L655 506z"/>
<path style="fill:#ff8d31; stroke:none;" d="M664 507L664 509L692 509L692 507L664 507M694 507L694 509L722 509L722 507L694 507M723 507L723 509L751 509L751 507L723 507M753 507L753 509L781 509L781 507L753 507M782 507L782 509L810 509L810 507L782 507M812 507L812 509L840 509L840 507L812 507z"/>
<path style="fill:#7f6227; stroke:none;" d="M623.333 509.667L623.667 510.333L623.333 509.667z"/>
<path style="fill:#ffd73d; stroke:none;" d="M634 537L663 537L663 509C644.717 509 634 518.917 634 537M664 509L664 537L692 537L692 509L664 509M693 509L693 537L722 537L722 509L693 509M723 509L723 537L751 537L751 509L723 509M752 509L752 537L781 537L781 509L752 509M782 509L782 537L810 537L810 509L782 509M811 509L811 537L840 537L840 509L811 509M841 509L841 537C851.57 536.657 868.657 519.57 869 509L841 509M871 512L874 509L871 512z"/>
<path style="fill:#7f6227; stroke:none;" d="M624.333 513.667L624.667 514.333L624.333 513.667z"/>
<path style="fill:#8e6d25; stroke:none;" d="M625.333 517.667L625.667 518.333L625.333 517.667M626.333 522.667L626.667 523.333L626.333 522.667z"/>
<path style="fill:#ffd73d; stroke:none;" d="M632 525C628.939 529.146 628.114 531.925 629 537L633 537L632 525z"/>
<path style="fill:#9c7723; stroke:none;" d="M627 527L627 530L628 530L627 527z"/>
<path style="fill:#b89c3a; stroke:none;" d="M628 534L628 537L629 537L628 534z"/>
<path style="fill:#554935; stroke:none;" d="M628 537L628 541L629 541L628 537z"/>
<path style="fill:#ffd73d; stroke:none;" d="M629 538L623 566L633 566L633 538L629 538M634 538L634 566L663 566L663 538L634 538z"/>
<path style="fill:#ff682c; stroke:none;" d="M663 538L663 596L664 596L664 557L663 538z"/>
<path style="fill:#ffd73d; stroke:none;" d="M664 538L664 566L692 566L692 538L664 538z"/>
<path style="fill:#ff682c; stroke:none;" d="M692 538L692 596L693 596L693 557L692 538z"/>
<path style="fill:#ffd73d; stroke:none;" d="M693 538L693 566L722 566L722 538L693 538z"/>
<path style="fill:#ff682c; stroke:none;" d="M722 538L722 596L723 596L723 557L722 538z"/>
<path style="fill:#ffd73d; stroke:none;" d="M723 538L723 566L751 566L751 538L723 538z"/>
<path style="fill:#ff682c; stroke:none;" d="M751 538L751 596L752 596L752 557L751 538z"/>
<path style="fill:#ffd73d; stroke:none;" d="M752 538L752 566L781 566L781 538L752 538z"/>
<path style="fill:#ff682c; stroke:none;" d="M781 538L781 596L782 596L782 557L781 538z"/>
<path style="fill:#ffd73d; stroke:none;" d="M782 538L782 566L810 566L810 538L782 538z"/>
<path style="fill:#ff682c; stroke:none;" d="M810 538L810 572L811 572L811 568L817 567L817 566L811 566L810 538z"/>
<path style="fill:#ffd73d; stroke:none;" d="M811 538L811 566C822.069 565.869 839.636 549.21 840 538L811 538M841 538L841 542L845 538L841 538z"/>
<path style="fill:#8e7838; stroke:none;" d="M628.333 549.667L628.667 550.333L628.333 549.667z"/>
<path style="fill:#b89c3a; stroke:none;" d="M627.333 554.667L627.667 555.333L627.333 554.667M626.333 557.667L626.667 558.333L626.333 557.667z"/>
<path style="fill:#ff8d31; stroke:none;" d="M621 567L621 568L633 568L633 566L621 567M634 566L634 568L663 568L663 566L634 566M664 566L664 568L692 568L692 566L664 566M694 566L694 568L722 568L722 566L694 566M723 566L723 568L751 568L751 566L723 566M753 566L753 568L781 568L781 566L753 566M782 566L782 568L810 568L810 566L782 566z"/>
<path style="fill:#ffd73d; stroke:none;" d="M610 596L633 596L633 568C624.183 568 609.797 571.601 607.333 582.04C606.269 586.543 609 591.676 610 596M634 568L634 596L663 596L663 568L634 568M664 568L664 596L692 596L692 568L664 568M693 568L693 596L722 596L722 568L693 568M723 568L723 596L751 596L751 568L723 568M752 568L752 596L781 596L781 568L752 568M782 568L782 596C791.453 593.753 809.247 577.984 810 568L782 568M811 571L815 569C812.588 567.645 811.568 568.351 811 571z"/>
<path style="fill:#ffc017; stroke:none;" d="M606 580L586 588C586.435 601.977 578.492 617.387 575.425 631C567.901 664.396 559.7 699.837 557 734L620 738L646 736L669 737L697.907 737.318L706.093 743.397L730 745C724.34 714.625 716.637 680.872 716 650L680 658L680 657L692 657L692 656C684.938 656 668.663 658.546 664.028 651.581C660.508 646.292 663 633.237 663 627L662 627L662 652C652.184 647.327 633.923 639.24 633 627C615.763 624.318 611.518 592.787 606 580z"/>
<path style="fill:#b88c20; stroke:none;" d="M598.667 583.333L599.333 583.667L598.667 583.333M595.667 584.333L596.333 584.667L595.667 584.333z"/>
<path style="fill:#ffd73d; stroke:none;" d="M581 595L586 595L587 589L581 595z"/>
<path style="fill:#ffffff; stroke:none;" d="M581 593L582 594L581 593M580 594L575 603L576 603L580 594z"/>
<path style="fill:#ff4326; stroke:none;" d="M580 595L580 596L585 596L580 595z"/>
<path style="fill:#ffd73d; stroke:none;" d="M565 624L578 624L585 596C575.064 596.765 567 615.26 565 624M611 597C614.44 607.103 620.772 624.854 633 625L633 597L611 597M634 597L634 625L663 625L663 597L634 597z"/>
<path style="fill:#ff682c; stroke:none;" d="M663 597L663 653L664 653L664 615L663 597z"/>
<path style="fill:#ffd73d; stroke:none;" d="M664 597L664 625L692 625L692 597L664 597z"/>
<path style="fill:#ff682c; stroke:none;" d="M692 597L692 655L672 655L672 656L692 658L693 658L702 656L702 655L693 655L693 616L692 597z"/>
<path style="fill:#ffd73d; stroke:none;" d="M693 597L693 625L722 625L722 597L693 597z"/>
<path style="fill:#ff682c; stroke:none;" d="M722 597L722 645L723 645C723 631.474 727.209 609.414 722 597z"/>
<path style="fill:#ffd73d; stroke:none;" d="M723 597L723 625L751 625L751 597L723 597M752 597L752 624C762.257 617.215 774.524 607.776 782 598L752 597M782 597L783 598L782 597z"/>
<path style="fill:#ffffff; stroke:none;" d="M574 604L575 605L574 604z"/>
<path style="fill:#ff8d31; stroke:none;" d="M563 654L565 654L565 626L577 626L577 624L563.773 624.773L562.996 633L563 654M627 625L627 626L633 627L633 625L627 625M634 625L634 627L663 627L663 625L634 625M664 625L664 627L692 627L692 625L664 625M694 625L694 627L722 627L722 625L694 625M723 625L723 627L750 626L723 625z"/>
<path style="fill:#ffd73d; stroke:none;" d="M543 654L563 654L563 626C554.539 630.297 546.7 645.424 543 654M565 626L565 654L571 654L577 626L565 626M634 627C634.151 639.79 651.151 648.3 662 652L662 627L634 627M664 627C664 632.779 661.199 648.99 665.603 653.142C670.503 657.762 685.654 655 692 655L692 627L664 627M693 627L693 655C704.793 655 712.484 650.887 723 646L722 627L693 627M723 627L723 645L748 628L723 627z"/>
<path style="fill:#ffffff; stroke:none;" d="M557 630L558 631L557 630z"/>
<path style="fill:#ff4326; stroke:none;" d="M542 654L542 655L571 655L542 654z"/>
<path style="fill:#ffd73d; stroke:none;" d="M535 683L563 683L563 655C557.148 655 548.569 653.407 543.093 655.603C532.921 659.683 535 674.474 535 683z"/>
<path style="fill:#ff8d31; stroke:none;" d="M563 655L563 683L535 683L535 685L563 685L563 693L564 693L565 655L563 655z"/>
<path style="fill:#ffd73d; stroke:none;" d="M565 655L565 683L566 683L570 655L565 655M680 657L680 658L692 659L692 657L680 657z"/>
<path style="fill:#ff682c; stroke:none;" d="M534 666L534 683L523 683L523 685L534 685L534 713L535 713C535 699.735 539.11 678.176 534 666z"/>
<path style="fill:#ffd73d; stroke:none;" d="M533 668L524 683L534 683L533 668M505 713L534 713L534 685C518.681 685 510.268 699.081 505 713M535 685L535 713L561 713L563 685L535 685z"/>
<path style="fill:#ff682c; stroke:none;" d="M504 713L504 743L485 743L485 744L504 744L504 772L476 772L476 757L475 757L475 772L466 772L466 773L475 773L475 802L446 802L446 803L475 803L475 831L446 831L446 804L445 804L445 831L431 831L431 832L445 832L445 837L446 837L446 832L475 832L475 851L476 851L476 832L504 832L504 836L505 836L505 832L510 832L510 831L505 831L505 803L534 803L534 807L535 807L535 803L539 803L539 802L535 802L535 773L563 773L563 780L564 780L565 773L571 773L571 772L535 772L535 744L587 744L587 743L565 743L565 734L563 734L563 743L535 743L535 714L534 714L534 743L505 743L504 713z"/>
<path style="fill:#ff4326; stroke:none;" d="M505 713L505 714L560 714L542 713L505 713z"/>
<path style="fill:#ffd73d; stroke:none;" d="M503 714L485 743L504 743L503 714z"/>
<path style="fill:#ffb237; stroke:none;" d="M505 714L505 743L534 743L534 714L533 714L533 742L506 742L505 714z"/>
<path style="fill:#ffd73d; stroke:none;" d="M506 714L506 742L533 742L533 714L506 714M535 714L535 743L563 743L563 734L557 734L560 714L535 714M565 735L565 743C571.086 743 585.716 745.883 588 739L593 736L565 735z"/>
<path style="fill:#ff4326; stroke:none;" d="M593.333 736.667L593.667 737.333L593.333 736.667z"/>
<path style="fill:#ffffff; stroke:none;" d="M642 737L651 755L655 754L646 736L642 737z"/>
<path style="fill:#d69851; stroke:none;" d="M652 737L652 738L672 738L652 737z"/>
<path style="fill:#ad708b; stroke:none;" d="M672 737L672 738L692 738L672 737z"/>
<path style="fill:#8448c6; stroke:none;" d="M692 737L692 738L701 738L692 737z"/>
<path style="fill:#ad7c9e; stroke:none;" d="M592 738L592 739L606 739L592 738z"/>
<path style="fill:#5b21ff; stroke:none;" d="M588 739C587.394 750.835 583.007 763.154 581.3 775C577.929 798.395 578.633 827.332 591.468 848C597.195 857.223 606.527 861.644 613.961 869.04C620.564 875.61 627.036 890.26 636 893L635 897C641.181 902.665 644.55 910.971 648.95 918C658.828 933.783 668.162 949.85 677.421 966C710.384 1023.5 740.122 1082.74 769.753 1142C780.554 1163.6 790.981 1185.4 801.753 1207C804.607 1212.72 808.867 1227.71 814.418 1230.88C821.579 1234.97 840.237 1228.99 848 1227.61C871.473 1223.47 895.347 1219.79 919 1216.84C925.244 1216.07 937.498 1211.12 943 1213C963.542 1208.11 981.827 1215.39 1002 1217C997.06 1203.97 986.522 1191.77 979.053 1180C963.15 1154.94 946.956 1130.06 931.053 1105C876.778 1019.47 820.648 935.043 767.192 849C750.95 822.856 735.274 796.727 719.999 770C715.235 761.664 709.318 743.884 700.815 739.028C696.706 736.681 689.579 738 685 738L647 738L655 754L651 755L641.671 739.028L626 738L588 739z"/>
<path style="fill:#4417e1; stroke:none;" d="M587 742C558.357 810.887 524.382 878.138 493.309 946C485.082 963.966 477.33 982.204 468.742 1000C466.335 1004.99 463.668 1016.1 458.61 1018.88C451.755 1022.66 432.686 1016.29 425 1015.28C394.329 1011.25 363.688 1006.88 333 1003L315 1051L318 1052C310.409 1084.03 293.237 1116.4 281 1147C277.453 1155.87 272.202 1164.73 270 1174L275 1174L264.995 1181.28L256 1205C335.576 1189.57 414.517 1170.89 494 1155C515.685 1150.66 537.429 1146.22 559 1141.35C565.288 1139.93 578.477 1139.81 583.146 1135.15C589.489 1128.8 590.959 1109.64 593.421 1101C601.858 1071.4 609.511 1041.58 618 1012C624.767 988.418 631.447 964.742 637.629 941C639.865 932.41 645.705 920.917 644.746 912C644.152 906.473 639.62 901.705 637 897L635 897C632.523 902.72 631.636 911.004 625 913L633 893L633 892C627.126 883.799 621.263 875.114 613.961 868.093C606.991 861.392 598.578 857.084 592.789 849C585.138 838.317 582.127 823.813 580.3 811C577.82 793.603 582.025 776.12 584.156 759C584.803 753.799 588.379 746.959 587 742z"/>
<path style="fill:#ffd73d; stroke:none;" d="M476 772L504 772L504 744C498.51 744 490.294 742.459 485.184 744.603C474.999 748.877 476 763.244 476 772M505 744L505 772L534 772L534 744L505 744M535 744L535 772L563 772L563 744L535 744z"/>
<path style="fill:#ff8d31; stroke:none;" d="M563 744L563 772L565 772L565 744L563 744z"/>
<path style="fill:#ffd73d; stroke:none;" d="M565 744L565 772C577.643 771.851 582.964 754.622 586 744L565 744M474 759L466 772L475 772L474 759z"/>
<path style="fill:#ffffff; stroke:none;" d="M573 770L574 771L573 770M663 771L672 789L677 787L667 770L663 771z"/>
<path style="fill:#ffb237; stroke:none;" d="M465 773L465 774L474 774L474 801L447 801L447 802L475 802L475 773L465 773z"/>
<path style="fill:#ffd73d; stroke:none;" d="M476 773L476 802L504 802L504 773L476 773z"/>
<path style="fill:#ffb237; stroke:none;" d="M505 773L505 802L534 802L534 773L505 773z"/>
<path style="fill:#ffd73d; stroke:none;" d="M535 773L535 802C546.392 802.581 562.962 783.883 563 773L535 773M565 773L565 778L570 773L565 773M448 801L474 801L474 774C460.743 774.002 452.337 789.155 448 801M506 774L506 801L533 801L533 774L506 774M446 803L446 831L475 831L475 803L446 803M476 803L476 831L504 831L504 803L476 803M505 803L505 831C514.642 830.687 534.505 812.881 534 803L505 803M535 803L535 807L539 803L535 803z"/>
<path style="fill:#ffffff; stroke:none;" d="M684 805L694 823L698 822L688 804L684 805z"/>
<path style="fill:#ffd73d; stroke:none;" d="M444 805L429 831L445 831L444 805M434 832L434 833L445 837L445 832L434 832z"/>
<path style="fill:#ffb237; stroke:none;" d="M446 832L446 837L447 837L447 833L474 833L474 851L475 851L475 832L446 832z"/>
<path style="fill:#ffd73d; stroke:none;" d="M476 832C476 837.072 474.033 847.344 477.603 851.362C486.265 861.11 503.375 840.292 504 832L476 832z"/>
<path style="fill:#ffb237; stroke:none;" d="M505 835L509 833C506.588 831.645 505.568 832.351 505 835z"/>
<path style="fill:#ffd73d; stroke:none;" d="M447 833C447.709 841.922 466.318 847.787 474 850L474 833L447 833z"/>
<path style="fill:#f9c2b8; stroke:none;" d="M438 864C440.683 876.542 428.482 888.469 420.004 895.87C415.924 899.431 408.444 905.542 410.782 911.895C414.783 922.766 439.131 917.896 447 915.329C468.946 908.169 476.961 894.618 480.586 873C481.396 868.175 483.819 861.028 482.643 856.213C481.398 851.116 469.339 847.83 465 845.781C458.688 842.8 447.059 834.576 440.001 835.238C435.728 835.638 432.697 840.923 430.374 844C424.596 851.656 412.869 864.597 417.368 874.996C424.238 890.874 435.105 871.955 438 864z"/>
<path style="fill:#ffffff; stroke:none;" d="M705 839L715 857L719 856L709 838L705 839M727 873L736 891L740 890L731 872L727 873z"/>
<path style="fill:#c5b7f6; stroke:none;" d="M631.333 893.667L631.667 894.333L631.333 893.667z"/>
<path style="fill:#ffffff; stroke:none;" d="M632 893L625 912L629 913L636 894L632 893z"/>
<path style="fill:#ad90ff; stroke:none;" d="M633 893L633 894L636 894L633 893z"/>
<path style="fill:#7f60ea; stroke:none;" d="M632.333 903.667L632.667 904.333L632.333 903.667z"/>
<path style="fill:#ffffff; stroke:none;" d="M748 907L757 925L762 923L752 906L748 907z"/>
<path style="fill:#a28bf0; stroke:none;" d="M625.667 912.333L626.333 912.667L625.667 912.333z"/>
<path style="fill:#c5b7f6; stroke:none;" d="M618 930L618 932L620 930L618 930z"/>
<path style="fill:#ffffff; stroke:none;" d="M612 950L615 951L622 931C615.387 933.069 612.939 943.732 612 950M769 941L779 959L783 958L773 940L769 941z"/>
<path style="fill:#7f60ea; stroke:none;" d="M618.333 941.667L618.667 942.333L618.333 941.667z"/>
<path style="fill:#c5b7f6; stroke:none;" d="M604.333 968.667L604.667 969.333L604.333 968.667z"/>
<path style="fill:#ffffff; stroke:none;" d="M605 968L598 987L602 988L609 969L605 968M790 975L800 993L804 992L794 974L790 975z"/>
<path style="fill:#7f60ea; stroke:none;" d="M605.333 978.667L605.667 979.333L605.333 978.667z"/>
<path style="fill:#a28bf0; stroke:none;" d="M598.667 987.333L599.333 987.667L598.667 987.333z"/>
<path style="fill:#c5b7f6; stroke:none;" d="M591.333 1006.67L591.667 1007.33L591.333 1006.67z"/>
<path style="fill:#ffffff; stroke:none;" d="M592 1006L585 1025L588 1026L595 1007L592 1006z"/>
<path style="fill:#7f60ea; stroke:none;" d="M593.667 1006.33L594.333 1006.67L593.667 1006.33z"/>
<path style="fill:#ffffff; stroke:none;" d="M812 1009L821 1027L825 1026L816 1008L812 1009z"/>
<path style="fill:#ff7388; stroke:none;" d="M113 1232L129 1241C134.168 1224.67 147.054 1208.87 155.579 1194C178.217 1154.51 201.04 1115.04 224.449 1076C235.395 1057.75 251.576 1037.3 258 1017L244.104 1010L234.989 1022L213.397 1059L145.576 1175L113 1232z"/>
<path style="fill:#7f60ea; stroke:none;" d="M591.333 1016.67L591.667 1017.33L591.333 1016.67z"/>
<path style="fill:#ff9dc1; stroke:none;" d="M258 1017L230.872 1064L163.719 1179L138.691 1222L129 1241C145.437 1241.71 161.668 1243.19 178 1240C182.188 1239.18 190.081 1238.74 193.012 1235.27C197.825 1229.57 194.285 1218.26 193 1212C201.809 1216.35 198.341 1226.05 198 1234C215.827 1230.83 215.183 1218.85 213 1204C221.124 1208.25 218.021 1217.47 218 1225C234.896 1217.71 237.474 1208.92 234 1192C241.266 1195.58 240 1202.97 240 1210C273.707 1186.26 284.947 1137.25 299.449 1101C305.6 1085.62 315.545 1068.39 318 1052L258 1017z"/>
<path style="fill:#b9a9f4; stroke:none;" d="M585.667 1025.33L586.333 1025.67L585.667 1025.33z"/>
<path style="fill:#ffffff; stroke:none;" d="M833 1042L842 1060L847 1058L837 1041L833 1042z"/>
<path style="fill:#c5b7f6; stroke:none;" d="M577.333 1043.67L577.667 1044.33L577.333 1043.67z"/>
<path style="fill:#ffffff; stroke:none;" d="M578 1043L571 1062L575 1063L582 1045L578 1043z"/>
<path style="fill:#a28bf0; stroke:none;" d="M571.667 1062.33L572.333 1062.67L571.667 1062.33z"/>
<path style="fill:#ffffff; stroke:none;" d="M854 1076L864 1094L868 1093L858 1075L854 1076z"/>
<path style="fill:#c5b7f6; stroke:none;" d="M564.333 1081.67L564.667 1082.33L564.333 1081.67z"/>
<path style="fill:#ffffff; stroke:none;" d="M565 1081L558 1100L561 1101L568 1082L565 1081z"/>
<path style="fill:#7f60ea; stroke:none;" d="M566.667 1081.33L567.333 1081.67L566.667 1081.33M564.333 1091.67L564.667 1092.33L564.333 1091.67z"/>
<path style="fill:#b9a9f4; stroke:none;" d="M558.667 1100.33L559.333 1100.67L558.667 1100.33z"/>
<path style="fill:#ffffff; stroke:none;" d="M875 1110L885 1128L889 1127L879 1109L875 1110z"/>
<path style="fill:#a28bf0; stroke:none;" d="M543.667 1111.33L544.333 1111.67L543.667 1111.33z"/>
<path style="fill:#ffffff; stroke:none;" d="M528 1119L548 1115L547 1111C541.462 1112.27 530.052 1113.14 528 1119z"/>
<path style="fill:#a28bf0; stroke:none;" d="M547.333 1111.67L547.667 1112.33L547.333 1111.67z"/>
<path style="fill:#c5b7f6; stroke:none;" d="M540.667 1112.33L541.333 1112.67L540.667 1112.33M536.667 1113.33L537.333 1113.67L536.667 1113.33z"/>
<path style="fill:#b9a9f4; stroke:none;" d="M532.667 1114.33L533.333 1114.67L532.667 1114.33z"/>
<path style="fill:#ae9af2; stroke:none;" d="M528.667 1115.33L529.333 1115.67L528.667 1115.33z"/>
<path style="fill:#967dee; stroke:none;" d="M545 1115L545 1116L548 1116L545 1115M540 1116L540 1117L543 1117L540 1116M535 1117L535 1118L538 1118L535 1117M530 1118L530 1119L533 1119L530 1118z"/>
<path style="fill:#a28bf0; stroke:none;" d="M504.667 1120.33L505.333 1120.67L504.667 1120.33z"/>
<path style="fill:#ffffff; stroke:none;" d="M489 1128L509 1124L508 1120C502.462 1121.27 491.052 1122.14 489 1128z"/>
<path style="fill:#a28bf0; stroke:none;" d="M508.333 1120.67L508.667 1121.33L508.333 1120.67z"/>
<path style="fill:#c5b7f6; stroke:none;" d="M501.667 1121.33L502.333 1121.67L501.667 1121.33M497.667 1122.33L498.333 1122.67L497.667 1122.33z"/>
<path style="fill:#b9a9f4; stroke:none;" d="M493.667 1123.33L494.333 1123.67L493.667 1123.33z"/>
<path style="fill:#ae9af2; stroke:none;" d="M489.667 1124.33L490.333 1124.67L489.667 1124.33z"/>
<path style="fill:#967dee; stroke:none;" d="M506 1124L506 1125L509 1125L506 1124M501 1125L501 1126L504 1126L501 1125M496 1126L496 1127L499 1127L496 1126M491 1127L491 1128L494 1128L491 1127z"/>
<path style="fill:#a28bf0; stroke:none;" d="M465.667 1129.33L466.333 1129.67L465.667 1129.33z"/>
<path style="fill:#ffffff; stroke:none;" d="M450 1137L470 1133L469 1129C463.462 1130.27 452.052 1131.14 450 1137z"/>
<path style="fill:#a28bf0; stroke:none;" d="M469.333 1129.67L469.667 1130.33L469.333 1129.67z"/>
<path style="fill:#c5b7f6; stroke:none;" d="M462.667 1130.33L463.333 1130.67L462.667 1130.33M458.667 1131.33L459.333 1131.67L458.667 1131.33z"/>
<path style="fill:#b9a9f4; stroke:none;" d="M454.667 1132.33L455.333 1132.67L454.667 1132.33z"/>
<path style="fill:#ae9af2; stroke:none;" d="M450.667 1133.33L451.333 1133.67L450.667 1133.33z"/>
<path style="fill:#967dee; stroke:none;" d="M467 1133L467 1134L470 1134L467 1133M462 1134L462 1135L465 1135L462 1134M457 1135L457 1136L460 1136L457 1135M452 1136L452 1137L455 1137L452 1136z"/>
<path style="fill:#b9a9f4; stroke:none;" d="M426.667 1138.33L427.333 1138.67L426.667 1138.33z"/>
<path style="fill:#ffffff; stroke:none;" d="M411 1146L431 1142L430 1138C424.093 1139.22 412.219 1138.98 411 1146z"/>
<path style="fill:#a28bf0; stroke:none;" d="M430.333 1138.67L430.667 1139.33L430.333 1138.67z"/>
<path style="fill:#ae9af2; stroke:none;" d="M421 1139L421 1140L424 1140L421 1139z"/>
<path style="fill:#a28bf0; stroke:none;" d="M416.667 1140.33L417.333 1140.67L416.667 1140.33M411.667 1141.33L412.333 1141.67L411.667 1141.33z"/>
<path style="fill:#967dee; stroke:none;" d="M428 1142L428 1143L431 1143L428 1142M423 1143L423 1144L426 1144L423 1143z"/>
<path style="fill:#ffffff; stroke:none;" d="M896 1145L906 1162L910 1161L901 1143L896 1145z"/>
<path style="fill:#967dee; stroke:none;" d="M418 1144L418 1145L421 1145L418 1144M413 1145L413 1146L416 1146L413 1145z"/>
<path style="fill:#b9a9f4; stroke:none;" d="M387.667 1147.33L388.333 1147.67L387.667 1147.33z"/>
<path style="fill:#ffffff; stroke:none;" d="M372 1155L392 1151L391 1147C385.093 1148.22 373.219 1147.98 372 1155z"/>
<path style="fill:#a28bf0; stroke:none;" d="M391.333 1147.67L391.667 1148.33L391.333 1147.67z"/>
<path style="fill:#ae9af2; stroke:none;" d="M382 1148L382 1149L385 1149L382 1148z"/>
<path style="fill:#a28bf0; stroke:none;" d="M377.667 1149.33L378.333 1149.67L377.667 1149.33M372.667 1150.33L373.333 1150.67L372.667 1150.33z"/>
<path style="fill:#967dee; stroke:none;" d="M389 1151L389 1152L392 1152L389 1151M384 1152L384 1153L387 1153L384 1152M379 1153L379 1154L382 1154L379 1153M374 1154L374 1155L377 1155L374 1154z"/>
<path style="fill:#b9a9f4; stroke:none;" d="M348.667 1156.33L349.333 1156.67L348.667 1156.33z"/>
<path style="fill:#ffffff; stroke:none;" d="M333 1164L353 1159L352 1156C346.093 1157.22 334.219 1156.98 333 1164z"/>
<path style="fill:#b9a9f4; stroke:none;" d="M352.333 1156.67L352.667 1157.33L352.333 1156.67z"/>
<path style="fill:#ae9af2; stroke:none;" d="M343 1157L343 1158L346 1158L343 1157z"/>
<path style="fill:#a28bf0; stroke:none;" d="M338.667 1158.33L339.333 1158.67L338.667 1158.33M333.667 1159.33L334.333 1159.67L333.667 1159.33z"/>
<path style="fill:#b9a9f4; stroke:none;" d="M309.667 1165.33L310.333 1165.67L309.667 1165.33z"/>
<path style="fill:#ffffff; stroke:none;" d="M294 1173L314 1168L313 1165C307.093 1166.22 295.219 1165.98 294 1173z"/>
<path style="fill:#b9a9f4; stroke:none;" d="M313.333 1165.67L313.667 1166.33L313.333 1165.67z"/>
<path style="fill:#ae9af2; stroke:none;" d="M304 1166L304 1167L307 1167L304 1166z"/>
<path style="fill:#a28bf0; stroke:none;" d="M299.667 1167.33L300.333 1167.67L299.667 1167.33M294.667 1168.33L295.333 1168.67L294.667 1168.33z"/>
<path style="fill:#d1c6f8; stroke:none;" d="M269 1173L272 1175L272 1174L269 1173z"/>
<path style="fill:#ffffff; stroke:none;" d="M267 1175L267 1179L275 1177L274 1174L267 1175z"/>
<path style="fill:#b9a9f4; stroke:none;" d="M274.333 1174.67L274.667 1175.33L274.333 1174.67z"/>
<path style="fill:#ffffff; stroke:none;" d="M918 1178L927 1196L931 1195L922 1177L918 1178M262.333 1185.67L262.667 1186.33L262.333 1185.67M941 1211L939 1214L941 1211z"/>
<path style="fill:#ad90ff; stroke:none;" d="M942.333 1211.67L942.667 1212.33L942.333 1211.67z"/>
<path style="fill:#8440ef; stroke:none;" d="M955 1211L955 1212L970 1212L955 1211z"/>
<path style="fill:#ad5fe0; stroke:none;" d="M944 1212L944 1213L948 1213L944 1212z"/>
<path style="fill:#ff9dc1; stroke:none;" d="M831 1230L831 1300L1089 1300C1085.27 1284.31 1074.59 1268.89 1064.05 1257C1060.67 1253.19 1056.64 1246.84 1051 1246.49C1043.04 1245.99 1036.8 1253.92 1031 1258C1032.29 1249.62 1040.66 1245.5 1048 1243L1048 1241C1044.47 1238.8 1041 1235.2 1037 1233.95C1028.02 1231.15 1020.79 1241.58 1014 1245C1015.57 1237.23 1022.82 1233.07 1030 1231C1019.4 1213.67 1004.7 1226.18 993 1232C994.673 1224.98 1000.2 1222.42 1006 1219C993.479 1211.45 973.164 1212 959 1212C916.553 1212 873.063 1224.68 831 1230z"/>
<path style="fill:#f599a2; stroke:none;" d="M1090 1318L1062 1317L1008 1317L831 1317L831 1257C768.985 1255.72 708.494 1260.87 647 1269.73C579.523 1279.45 510.594 1287.05 444 1301.88C428.718 1305.29 411.782 1308.71 398 1316.44C392.524 1319.51 385.282 1324.7 387.908 1332C391.536 1342.08 408.819 1345.8 418 1348.1C449.073 1355.91 482.147 1357.01 514 1357C577.683 1356.98 641.352 1351.76 705 1351C741.153 1350.57 777.882 1349.46 814 1351.04C847.712 1352.52 881.184 1356 915 1356C958.833 1356 1005.29 1353 1048 1342.37C1062.42 1338.79 1085.97 1334.77 1090 1318z"/>
<path style="fill:#ff7388; stroke:none;" d="M831 1300L831 1317L1089 1317L1089 1300L831 1300z"/>
</svg>