<svg width="104" height="68" viewBox="0 0 104 68" fill="none" xmlns="http://www.w3.org/2000/svg">
<path d="M85.5754 11.9999L91.5858 5.9895L93.0001 7.40372L88.4039 11.9999L93.0001 16.5961L91.5858 18.0103L85.5754 11.9999Z" fill="white"/>
<path d="M91.0001 11.9999L97.0105 5.9895L98.4247 7.40372L93.8285 11.9999L98.4247 16.5961L97.0105 18.0103L91.0001 11.9999Z" fill="white"/>
<path d="M37.9512 36.7441V35.8145H36.8301V36.7441C36.8232 38.8359 34.4648 40.6748 32.3594 41.0781L32.8516 41.9805C34.6904 41.5498 36.6113 40.251 37.4043 38.4668C38.1904 40.251 40.1182 41.5566 41.957 41.9805L42.4492 41.0781C40.3369 40.6816 37.958 38.8291 37.9512 36.7441ZM31.8945 45.4531H43.0234V44.5645H31.8945V45.4531ZM47.6582 35.7461C45.7578 35.7598 44.4111 36.9082 44.418 38.6035C44.4111 40.1348 45.5117 41.2217 47.125 41.4131V43.5186C45.9492 43.5527 44.8213 43.5596 43.8438 43.5664L44.0215 44.4688C46.1611 44.4824 49.0322 44.4551 51.6094 44.0176L51.541 43.2109C50.4814 43.3477 49.3398 43.4297 48.2051 43.4775V41.4131C49.7842 41.208 50.8916 40.1279 50.8984 38.6035C50.8916 36.9082 49.5244 35.7598 47.6582 35.7461ZM45.4707 38.6035C45.457 37.4619 46.3799 36.6826 47.6582 36.6758C48.916 36.6826 49.832 37.4619 49.8457 38.6035C49.832 39.7451 48.916 40.5381 47.6582 40.5312C46.3799 40.5381 45.457 39.7451 45.4707 38.6035ZM52.3203 47.1074H53.3867V40.9004H55.3691V39.9707H53.3867V34.9531H52.3203V47.1074ZM66.1152 34.9531H65.0352V47.1348H66.1152V34.9531ZM56.5449 40.1348C56.5518 42.7256 57.8369 44.3662 59.6484 44.3594C61.4531 44.3662 62.7588 42.7256 62.752 40.1348C62.7588 37.5508 61.4531 35.9033 59.6484 35.8965C57.8369 35.9033 56.5518 37.5508 56.5449 40.1348ZM57.584 40.1348C57.584 38.1592 58.4316 36.8604 59.6484 36.8535C60.8721 36.8604 61.7129 38.1592 61.7129 40.1348C61.7129 42.1104 60.8721 43.4092 59.6484 43.4023C58.4316 43.4092 57.584 42.1104 57.584 40.1348ZM79.3223 44.6328H68.1934V45.5488H79.3223V44.6328ZM69.1777 37.0723H71.1055V41.3242H69.2051V42.1992H78.2285V41.3242H76.3281V37.0723H78.2559V36.1836H69.1777V37.0723ZM72.1719 41.3242V37.0723H75.2754V41.3242H72.1719ZM86.3633 37.0586H83.8613V35.3223H82.7949V37.0586H80.2656V37.9336H86.3633V37.0586ZM80.7031 41.5156C80.7031 43.1494 81.8037 44.2979 83.3145 44.3047C84.8457 44.2979 85.9395 43.1494 85.9531 41.5156C85.9395 39.9023 84.8457 38.7607 83.3145 38.7539C81.8037 38.7607 80.7031 39.9023 80.7031 41.5156ZM81.6602 41.5156C81.6602 40.4492 82.3506 39.6699 83.3145 39.6562C84.2852 39.6699 84.9961 40.4492 84.9961 41.5156C84.9961 42.5957 84.2852 43.3682 83.3145 43.3613C82.3506 43.3682 81.6602 42.5957 81.6602 41.5156ZM86.9922 46.5059H88.0039V40.9688H89.6172V47.1074H90.6426V34.9531H89.6172V40.0801H88.0039V35.2539H86.9922V46.5059ZM96.6719 38.2207V36.0059H95.5781V38.2207C95.5713 40.4629 94.1631 42.8008 92.3789 43.6758L93.0762 44.5371C94.457 43.8057 95.5986 42.2471 96.1387 40.4287C96.6787 42.1582 97.8203 43.6074 99.2012 44.3184L99.8438 43.4434C98.0801 42.6367 96.665 40.4219 96.6719 38.2207ZM98.5176 39.9844H101.402V47.1348H102.469V34.9531H101.402V39.1094H98.5176V39.9844ZM11.0039 52.9531H9.95117V57.9023H8.20117V53.2266H7.18945V64.4785H8.20117V58.8184H9.95117V65.1074H11.0039V52.9531ZM1.24219 61.9629H1.99414C3.33398 61.9629 4.72852 61.874 6.42383 61.5664L6.28711 60.6094C4.81055 60.9102 3.51172 60.999 2.30859 61.0059V54.4434H1.24219V61.9629ZM23.8008 58.9688H21.0527V57.2529C22.0098 56.8701 22.5498 56.2549 22.5566 55.4414C22.5498 54.0127 20.9092 53.1924 18.2637 53.1855C15.5977 53.1924 13.957 54.0127 13.957 55.4414C13.957 56.2617 14.5039 56.877 15.4746 57.2529V58.9688H12.7266V59.8574H23.8008V58.9688ZM14.0664 62.9336C14.0596 64.3213 15.625 65.0801 18.2637 65.0801C20.8682 65.0801 22.4336 64.3213 22.4473 62.9336C22.4336 61.5459 20.8682 60.7803 18.2637 60.7871C15.625 60.7803 14.0596 61.5459 14.0664 62.9336ZM15.0645 55.4414C15.0576 54.5664 16.2744 54.0332 18.2637 54.0332C20.2324 54.0332 21.4561 54.5664 21.4629 55.4414C21.4561 56.3301 20.2324 56.8428 18.2637 56.8496C16.2744 56.8428 15.0576 56.3301 15.0645 55.4414ZM15.1602 62.9336C15.1465 62.1064 16.3154 61.6211 18.2637 61.6074C20.1914 61.6211 21.3604 62.1064 21.3672 62.9336C21.3604 63.7607 20.1914 64.2529 18.2637 64.2461C16.3154 64.2529 15.1465 63.7607 15.1602 62.9336ZM16.541 58.9688V57.5469C17.0537 57.6357 17.6279 57.6836 18.2637 57.6836C18.8994 57.6836 19.4736 57.6357 19.9863 57.54V58.9688H16.541ZM30.3633 53.1719C27.6494 53.1719 26.0566 53.917 26.0566 55.2637C26.0566 56.6445 27.6494 57.3896 30.3633 57.3965C33.0635 57.3896 34.6494 56.6445 34.6562 55.2637C34.6494 53.917 33.0635 53.1719 30.3633 53.1719ZM24.8262 59.0918H35.9004V58.2168H24.8262V59.0918ZM26.166 60.9648H33.4258V62.0723H26.1934V64.9707H34.8477V64.123H27.2598V62.8652H34.4785V60.1445H26.166V60.9648ZM27.1777 55.2637C27.1641 54.4639 28.3467 53.9854 30.3633 53.9785C32.3799 53.9854 33.5557 54.4639 33.5625 55.2637C33.5557 56.1113 32.3799 56.5762 30.3633 56.5762C28.3467 56.5762 27.1641 56.1113 27.1777 55.2637ZM50.4609 52.9531H49.4082V59.4336H50.4609V52.9531ZM40.7266 56.2344C40.7197 57.8408 42.0459 58.9619 43.8848 58.9688C45.7031 58.9619 47.0225 57.8408 47.0293 56.2344C47.0225 54.6279 45.7031 53.5068 43.8848 53.5137C42.0459 53.5068 40.7197 54.6279 40.7266 56.2344ZM41.7793 56.2344C41.7656 55.1748 42.6611 54.4092 43.8848 54.416C45.0879 54.4092 45.9902 55.1748 45.9902 56.2344C45.9902 57.3076 45.0879 58.0801 43.8848 58.0801C42.6611 58.0801 41.7656 57.3076 41.7793 56.2344ZM41.9844 60.7871H44.9785V61.9629H41.998V64.9434H42.7363C44.5205 64.9502 45.5938 64.9297 46.9746 64.6699L46.8652 63.8496C45.6143 64.0752 44.6025 64.1094 43.0371 64.1094V62.7559H46.0176V59.9531H41.9844V60.7871ZM46.5645 60.8418H49.4082V65.0117H50.4609V59.9531H46.5645V60.8418ZM55.8066 53.8965C54.0088 53.9033 52.751 55.5508 52.7578 58.1348C52.751 60.7256 54.0088 62.3662 55.8066 62.3594C57.502 62.3662 58.7188 60.876 58.835 58.4902H61.5488V65.1348H62.6152V52.9531H61.5488V57.6016H58.8213C58.6572 55.3252 57.4609 53.9033 55.8066 53.8965ZM53.7832 58.1348C53.79 56.1592 54.6104 54.8604 55.8066 54.8535C56.9961 54.8604 57.8301 56.1592 57.8301 58.1348C57.8301 60.1104 56.9961 61.4092 55.8066 61.4023C54.6104 61.4092 53.79 60.1104 53.7832 58.1348ZM75.7676 62.6602H70.6953V60.0352H74.4004V53.8145H73.3477V56.0156H67.0312V53.8145H65.9512V60.0352H69.6426V62.6602H64.6387V63.5488H75.7676V62.6602ZM67.0312 59.1602V56.8906H73.3477V59.1602H67.0312ZM80.3477 56.4121V54.1016H79.3086V56.4531C79.3086 58.5381 78.2832 60.6914 76.6016 61.6758L77.2852 62.4824C78.502 61.7441 79.4043 60.3496 79.8486 58.7295C80.2725 60.2129 81.1133 61.5117 82.2891 62.2227L82.9043 61.3887C81.291 60.4316 80.3477 58.3467 80.3477 56.4121ZM81.5645 58.2305H83.6289V64.4922H84.6406V53.2129H83.6289V57.3145H81.5645V58.2305ZM86.1172 65.1074H87.1562V52.9531H86.1172V65.1074ZM99.9668 62.6465H97.2051V59.3379C98.21 58.7979 98.8184 57.9365 98.8184 56.8496C98.8184 54.9697 96.9727 53.7324 94.375 53.7188C91.7773 53.7324 89.9316 54.9697 89.9316 56.8496C89.9316 57.957 90.5605 58.832 91.5996 59.3721V62.6465H88.8379V63.5488H99.9668V62.6465ZM90.9707 56.8496C90.9639 55.4893 92.3789 54.5938 94.375 54.6074C96.3506 54.5938 97.7793 55.4893 97.7793 56.8496C97.7793 58.21 96.3506 59.1191 94.375 59.1191C92.3789 59.1191 90.9639 58.21 90.9707 56.8496ZM92.6523 62.6465V59.7617C93.1719 59.8984 93.7529 59.9668 94.375 59.9668C95.0107 59.9668 95.5986 59.8916 96.125 59.7549V62.6465H92.6523ZM102.223 64.082C102.708 64.0752 103.104 63.6787 103.098 63.1934C103.104 62.7148 102.708 62.3184 102.223 62.3184C101.744 62.3184 101.334 62.7148 101.348 63.1934C101.334 63.6787 101.744 64.0752 102.223 64.082Z" fill="#E7EAF6"/>
</svg>
