<svg xmlns="http://www.w3.org/2000/svg" viewBox="0 0 562.66 137.21">
<defs>
<style>text-logo{fill:white;}</style>
</defs>
<g id="레이어_2" data-name="레이어 2"><g id="design">
<path class="cls-1" d="M114.36,63.09h23.19V76.33a27.06,27.06,0,0,1,7.65-10.69q4.86-4,13.12-3.64V86.28h-1.94q-9.12,0-14,5.35t-4.86,16.76v20.4H114.36Z"/>
<path class="cls-1" d="M188,130.24a27.54,27.54,0,0,1-8.75-1.33,20.59,20.59,0,0,1-7-3.89,17.85,17.85,0,0,1-4.67-6.31,21,21,0,0,1-1.7-8.75v-.24a20.35,20.35,0,0,1,1.88-9A17.55,17.55,0,0,1,173,94.3a24.06,24.06,0,0,1,8.07-3.89,39,39,0,0,1,10.57-1.33,47.07,47.07,0,0,1,8.8.79,48.71,48.71,0,0,1,7,1.76v-1.1a9.9,9.9,0,0,0-3.22-7.89q-3.23-2.79-9.9-2.79a42.42,42.42,0,0,0-9.47,1,62.07,62.07,0,0,0-8.62,2.67l-4.74-16.27a71.71,71.71,0,0,1,11.84-3.7,68.5,68.5,0,0,1,14.76-1.4,47.59,47.59,0,0,1,15,2.06,25.35,25.35,0,0,1,10,5.95,20.92,20.92,0,0,1,5.41,8.81A40.13,40.13,0,0,1,230.11,91v37.77H207.28V122a24.47,24.47,0,0,1-19.3,8.25Zm8.25-14.45a11.7,11.7,0,0,0,8.26-2.91,10.19,10.19,0,0,0,3.16-7.89v-3a21.48,21.48,0,0,0-4.07-1.22,24.73,24.73,0,0,0-4.92-.48q-5.1,0-7.83,2.25a7.25,7.25,0,0,0-2.73,5.89v.24a6.42,6.42,0,0,0,2.31,5.28A8.86,8.86,0,0,0,196.23,115.79Z"/>
<path class="cls-1" d="M273.59,130.37a34,34,0,0,1-34.37-34.13V96a33.72,33.72,0,0,1,21-31.51,36.48,36.48,0,0,1,14.27-2.74q10.2,0,17,4a32.47,32.47,0,0,1,11.05,10.69L286.82,88.11A20.54,20.54,0,0,0,281.6,83a12.6,12.6,0,0,0-7-1.83,11.62,11.62,0,0,0-5.16,1.16,12.32,12.32,0,0,0-4.07,3.16,15.35,15.35,0,0,0-2.67,4.61,16,16,0,0,0-1,5.65V96a17.41,17.41,0,0,0,1,5.89,15,15,0,0,0,2.67,4.73,12.15,12.15,0,0,0,4.13,3.16,12.28,12.28,0,0,0,5.34,1.16,12.66,12.66,0,0,0,7-1.83,27,27,0,0,0,5.65-5l15.42,11.17a36.33,36.33,0,0,1-11.53,10.93Q284.39,130.37,273.59,130.37Z"/>
<path class="cls-1" d="M312.4,40.14h24.17v17H312.4Zm.49,23h23.19v65.7H312.89Z"/>
<path class="cls-1" d="M383.76,130.37a38.48,38.48,0,0,1-14.52-2.68,35.62,35.62,0,0,1-11.47-7.34,33.08,33.08,0,0,1-10.2-24.11V96a32.91,32.91,0,0,1,2.73-13.3,33.77,33.77,0,0,1,7.59-10.93,36.23,36.23,0,0,1,11.54-7.4A37.92,37.92,0,0,1,384,61.63a37.5,37.5,0,0,1,14.51,2.74A37.07,37.07,0,0,1,410,71.71a32.8,32.8,0,0,1,7.53,10.81,33.25,33.25,0,0,1,2.67,13.24V96a32.75,32.75,0,0,1-2.74,13.3,33.62,33.62,0,0,1-7.59,10.92,36,36,0,0,1-11.53,7.41A38.14,38.14,0,0,1,383.76,130.37Zm.24-19.68a13.86,13.86,0,0,0,5.71-1.14,12.61,12.61,0,0,0,4.31-3.13,14.51,14.51,0,0,0,2.73-4.64,15.91,15.91,0,0,0,1-5.54V96a15.63,15.63,0,0,0-1-5.66,14.11,14.11,0,0,0-2.92-4.64,14.63,14.63,0,0,0-4.43-3.19,12.94,12.94,0,0,0-5.58-1.2,13.83,13.83,0,0,0-5.71,1.14,12.51,12.51,0,0,0-4.31,3.13A14.16,14.16,0,0,0,371,90.22a15.92,15.92,0,0,0-1,5.54V96a15.42,15.42,0,0,0,1,5.66A13.92,13.92,0,0,0,374,106.3a14.8,14.8,0,0,0,4.43,3.19A13,13,0,0,0,384,110.69Z"/>
<path class="cls-1" d="M451.88,130.24q-10.62,0-16.54-6.43t-5.93-17.73v-43h23.2V98.67c0,3.64.84,6.4,2.52,8.26a8.58,8.58,0,0,0,6.71,2.79,9,9,0,0,0,6.77-2.79c1.8-1.86,2.7-4.62,2.7-8.26V63.09H494.5v65.7H471.31v-9a32.47,32.47,0,0,1-7.8,7.29A20.35,20.35,0,0,1,451.88,130.24Z"/>
<path class="cls-1" d="M535.82,130.24a56.57,56.57,0,0,1-16.27-2.36,49.71,49.71,0,0,1-14.82-7.35l8.62-14a47,47,0,0,0,11.6,5.65,36.08,36.08,0,0,0,11,1.88q5.84,0,5.83-3.52v-.24c0-1.3-.89-2.31-2.67-3a76.42,76.42,0,0,0-7.9-2.55,78.4,78.4,0,0,1-9.1-2.85,30.32,30.32,0,0,1-7.41-4,17.32,17.32,0,0,1-5-5.77,17.6,17.6,0,0,1-1.82-8.38v-.24a20.83,20.83,0,0,1,2-9.29,19.29,19.29,0,0,1,5.53-6.8,25.43,25.43,0,0,1,8.32-4.19,36,36,0,0,1,10.5-1.46,52,52,0,0,1,14.33,2,48.13,48.13,0,0,1,12.75,5.64L553.43,84a57.86,57.86,0,0,0-10.33-4.44A31.09,31.09,0,0,0,534,77.9a7.14,7.14,0,0,0-4,.92,2.65,2.65,0,0,0-1.34,2.24v.25c0,1.29.92,2.32,2.74,3.09a84,84,0,0,0,8,2.73q4.86,1.35,9.11,3a30.69,30.69,0,0,1,7.41,4,17.37,17.37,0,0,1,5,5.76,17,17,0,0,1,1.83,8.14v.24a21.84,21.84,0,0,1-1.95,9.54,19.22,19.22,0,0,1-5.46,6.86,23.91,23.91,0,0,1-8.5,4.19A40.47,40.47,0,0,1,535.82,130.24Z"/>
<path class="cls-1" d="M38.45,41.79C27.68,46.35,7.2,54.91.59,61.63v.1L40,50.2v87l39-11.07V39.63l32-8.68,5-7.85c3.3-4.73,7.4-9.41,7.4-9.41S53.67,35.35,38.45,41.79Z"/>
<path class="cls-1" d="M129.19,7.84s-7.36-1-11.38-2.89l-6.88-3.24L.27,32.7s-2.21,12,6,10.85C12.07,43,129.19,7.84,129.19,7.84Z"/>
<path class="cls-1" d="M130.46,2.07c2.83,1,6,2.07,8.87,3.08h0l-4.68,9a.65.65,0,0,0,1.06.62L147.59,3.16A1.7,1.7,0,0,0,147.81.9,2.06,2.06,0,0,0,146,0l-15.3,1.18A.48.48,0,0,0,130.46,2.07Z"/></g></g></svg>