<svg width="360" height="124" viewBox="0 0 360 124" fill="none" xmlns="http://www.w3.org/2000/svg">
<path d="M89.332 10V9.90625H93.9727V8.45312H89.332V6.13281H87.5039V8.45312H82.8633V9.90625H87.5039V10C87.5039 12.2266 85.4297 14.1602 82.418 14.8281L83.2148 16.3047C85.6875 15.6953 87.5625 14.3008 88.4531 12.4727C89.3672 14.1602 91.2188 15.4258 93.6211 16.0234L94.3711 14.5469C91.4062 13.8906 89.3438 12.1094 89.332 10ZM81.4336 17.7812L81.6914 19.3281C83.4375 19.3281 85.4414 19.3164 87.5508 19.2344V26.2891H89.3789V19.1406C91.3945 19.0117 93.457 18.8125 95.4492 18.4844L95.332 17.1484C90.7148 17.7461 85.4297 17.7695 81.4336 17.7812ZM96.8555 26.9219H98.6602V6.08594H96.8555V26.9219ZM121.605 9.71875H118.512V6.0625H116.684V19.5156H118.512V15.6719H121.605V14.125H118.512V11.2422H121.605V9.71875ZM102.27 9.90625H114.691V8.45312H109.395V5.89844H107.566V8.45312H102.27V9.90625ZM103.465 14.6641C103.453 16.9141 105.457 18.3555 108.48 18.3438C111.469 18.3555 113.473 16.9141 113.496 14.6641C113.473 12.4375 111.469 10.9961 108.48 10.9844C105.457 10.9961 103.453 12.4375 103.465 14.6641ZM105.105 23.2656C105.094 25.5273 107.672 26.8516 111.926 26.8516C116.168 26.8516 118.746 25.5273 118.746 23.2656C118.746 20.9922 116.168 19.668 111.926 19.6562C107.672 19.668 105.094 20.9922 105.105 23.2656ZM105.223 14.6641C105.211 13.293 106.512 12.3906 108.48 12.3672C110.426 12.3906 111.738 13.293 111.762 14.6641C111.738 16.0352 110.426 16.9141 108.48 16.9141C106.512 16.9141 105.211 16.0352 105.223 14.6641ZM106.934 23.2656C106.91 21.8828 108.809 21.1094 111.926 21.1094C115.031 21.1094 116.93 21.8828 116.918 23.2656C116.93 24.6133 115.031 25.4336 111.926 25.4219C108.809 25.4336 106.91 24.6133 106.934 23.2656ZM140.238 6.0625H138.387V13.6562H133.816V15.1797H138.387V26.9453H140.238V6.0625ZM122.777 21.3438L123.902 22.7734C126.281 21.5312 128.344 18.8477 129.281 15.7539C130.23 18.6602 132.234 21.1797 134.613 22.3516L135.715 20.875C132.68 19.4922 130.195 15.7188 130.184 12.25V9.74219H134.965V8.21875H123.574V9.74219H128.332V12.25C128.32 15.9531 125.801 19.8789 122.777 21.3438ZM154.699 7.49219H145.09V8.99219H152.719C152.344 12.5547 149.121 15.3438 144.035 16.75L144.762 18.2266C149.262 16.9961 152.531 14.6172 153.938 11.3359H159.129V14.2188H153.598V15.7422H159.129V18.5078H160.98V6.08594H159.129V9.8125H154.441C154.605 9.07422 154.699 8.30078 154.699 7.49219ZM146.965 20.8984H159.129V26.875H160.98V19.4219H146.965V20.8984ZM176.074 7.67969C172.992 7.69141 170.836 10.5156 170.848 14.9453C170.836 19.3867 172.992 22.1992 176.074 22.1875C178.09 22.1992 179.707 20.9688 180.574 18.8594H185.918V26.9453H187.746V6.0625H185.918V10.7266H180.445C179.543 8.80469 177.984 7.69141 176.074 7.67969ZM172.605 14.9453C172.617 11.5586 174.023 9.33203 176.074 9.32031C178.113 9.33203 179.543 11.5586 179.543 14.9453C179.543 18.332 178.113 20.5586 176.074 20.5469C174.023 20.5586 172.617 18.332 172.605 14.9453ZM180.973 12.2734H185.918V17.3359H181.043C181.195 16.6094 181.277 15.8008 181.277 14.9453C181.277 13.9727 181.172 13.082 180.973 12.2734ZM208.91 6.0625H207.152V11.7578H204.363V6.48438H202.629V18.5078H204.363V13.2812H207.152V19.2578H208.91V6.0625ZM191.098 10.0469H201.785V8.57031H197.379V6.22656H195.551V8.57031H191.098V10.0469ZM192.012 14.7344C192 16.8789 193.84 18.2734 196.465 18.2734C199.102 18.2734 200.93 16.8789 200.941 14.7344C200.93 12.5547 199.102 11.1602 196.465 11.1719C193.84 11.1602 192 12.5547 192.012 14.7344ZM193.652 14.7344C193.652 13.4102 194.801 12.5312 196.465 12.5312C198.129 12.5312 199.277 13.4102 199.277 14.7344C199.277 16.0117 198.129 16.8906 196.465 16.8906C194.801 16.8906 193.652 16.0117 193.652 14.7344ZM195.035 23.2656C195.012 25.5508 197.625 26.8516 202.02 26.8516C206.402 26.8516 209.016 25.5508 209.027 23.2656C209.016 20.9219 206.402 19.6094 202.02 19.6094C197.625 19.6094 195.012 20.9219 195.035 23.2656ZM196.863 23.2656C196.84 21.8359 198.773 21.0391 202.02 21.0625C205.254 21.0391 207.176 21.8359 207.199 23.2656C207.176 24.6133 205.254 25.4336 202.02 25.4219C198.773 25.4336 196.84 24.6133 196.863 23.2656ZM235.207 6.0625H233.355V26.8984H235.207V6.0625ZM217.957 20.1719L218.168 21.7422C222.023 21.7188 227.051 21.6484 231.598 20.9453L231.48 19.5625C230.367 19.6914 229.207 19.7969 228.035 19.8789V9.85938H230.402V8.33594H218.496V9.85938H220.84V20.1484C219.832 20.1602 218.859 20.1719 217.957 20.1719ZM222.645 20.1133V9.85938H226.23V19.9844C225.023 20.043 223.816 20.0898 222.645 20.1133ZM255.551 16.0938H242.988V9.53125H255.34V8.00781H241.16V17.6172H255.551V16.0938ZM238.723 24.0625H257.801V22.5156H238.723V24.0625ZM278.543 22.7734H269.848V18.8359H276.621V17.3125H263.684V13.9141H276.129V7.60938H261.809V9.13281H274.324V12.4141H261.855V18.8359H268.043V22.7734H259.465V24.3203H278.543V22.7734ZM108.387 39.3281C105.152 39.3281 102.832 42.2695 102.855 46.9219C102.832 51.6094 105.152 54.5391 108.387 54.5391C110.449 54.5391 112.148 53.3203 113.098 51.2109H117.551V59.2031H120.504V37.8281H117.551V42.2109H112.875C111.902 40.3711 110.309 39.3281 108.387 39.3281ZM105.715 46.9219C105.703 43.7578 106.793 42.0234 108.387 42.0234C109.992 42.0234 111.059 43.7578 111.059 46.9219C111.059 50.0977 109.992 51.832 108.387 51.8203C106.793 51.832 105.703 50.0977 105.715 46.9219ZM113.707 44.625H117.551V48.8203H113.777C113.871 48.2227 113.918 47.5898 113.918 46.9219C113.918 46.1016 113.848 45.3281 113.707 44.625ZM141.574 37.8281H138.738V43.1016H137.027V38.2266H134.238V50.5078H137.027V45.5391H138.738V51.2109H141.574V37.8281ZM123.129 42.3516H133.605V40.0312H129.879V38.0156H126.902V40.0312H123.129V42.3516ZM123.785 46.7812C123.773 48.9961 125.73 50.4727 128.402 50.4844C131.109 50.4727 133.055 48.9961 133.066 46.7812C133.055 44.543 131.109 43.0547 128.402 43.0547C125.73 43.0547 123.773 44.543 123.785 46.7812ZM126.457 46.7812C126.445 45.7852 127.242 45.1992 128.402 45.2109C129.562 45.1992 130.359 45.7852 130.371 46.7812C130.359 47.7656 129.562 48.3633 128.402 48.3516C127.23 48.3633 126.445 47.7656 126.457 46.7812ZM126.902 55.2891C126.891 57.75 129.691 59.168 134.285 59.1562C138.891 59.168 141.668 57.75 141.691 55.2891C141.668 52.8164 138.891 51.4102 134.285 51.3984C129.691 51.4102 126.891 52.8164 126.902 55.2891ZM129.902 55.2891C129.879 54.1641 131.391 53.6367 134.285 53.6484C137.191 53.6367 138.668 54.1641 138.668 55.2891C138.668 56.3672 137.191 56.9062 134.285 56.9062C131.391 56.9062 129.879 56.3672 129.902 55.2891ZM168.973 45.2344H166.102C166.711 42.8555 166.711 40.9922 166.723 39.6562V38.5078H159.645V40.8984H163.816C163.77 42.0469 163.629 43.4297 163.113 45.2344H157.711C158.332 43.0312 158.332 41.25 158.332 39.8906V38.5078H151.254V40.8984H155.414C155.379 42.0703 155.238 43.4297 154.664 45.2344H149.52V47.625H157.746V49.3828H151.723V51.7266H163.582V53.0625H151.77V59.0156H167.168V56.6484H154.77V55.2656H166.559V49.3828H160.746V47.625H168.973V45.2344ZM181.77 38.9297H171.434V49.2422H173.262C177.82 49.2539 180.539 49.1836 183.574 48.6797L183.27 46.3359C180.574 46.7695 178.195 46.875 174.434 46.8984V45.2578H181.137V42.9141H174.434V41.2734H181.77V38.9297ZM173.848 58.9219H188.121V50.6016H185.145V52.4062H176.801V50.6016H173.848V58.9219ZM176.801 56.5312V54.7266H185.145V56.5312H176.801ZM185.121 49.7344H188.121V37.8281H185.121V49.7344ZM208.863 37.8281H205.84V59.2031H208.863V37.8281ZM191.637 46.9219C191.625 51.6094 194.004 54.5391 197.285 54.5391C200.496 54.5391 202.887 51.6094 202.887 46.9219C202.887 42.2695 200.496 39.3281 197.285 39.3281C194.004 39.3281 191.625 42.2695 191.637 46.9219ZM194.52 46.9219C194.508 43.7578 195.621 42.0234 197.285 42.0234C198.902 42.0234 199.992 43.7578 200.004 46.9219C199.992 50.0977 198.902 51.832 197.285 51.8203C195.621 51.832 194.508 50.0977 194.52 46.9219ZM234.105 37.8281H231.105V59.1094H234.105V48.4688H237.129V46.0078H234.105V37.8281ZM217.043 53.1328L218.73 55.4297C225.902 51.9023 228.387 46.3828 228.41 40.0078H218.262V42.4453H225.375C224.812 47.2031 222.094 50.6016 217.043 53.1328ZM257.52 47.9062H238.02V50.2969H257.52V47.9062ZM240.176 54.5156H252.223V59.1797H255.152V52.125H240.176V54.5156ZM240.387 46.1953H255.387V43.8047H243.363V40.8984H255.176V38.5547H240.387V46.1953Z" fill="#292733"/>
<path d="M66.0654 85.8965C64.2607 85.9033 62.9961 87.5508 63.0029 90.1348C62.9961 92.7256 64.2607 94.3662 66.0654 94.3594C67.8564 94.3662 69.1279 92.7256 69.1416 90.1348C69.1279 87.5508 67.8564 85.9033 66.0654 85.8965ZM64.0146 90.1348C64.0215 88.1592 64.8623 86.8604 66.0654 86.8535C67.2822 86.8604 68.1025 88.1592 68.1025 90.1348C68.1025 92.1104 67.2822 93.4092 66.0654 93.4023C64.8623 93.4092 64.0215 92.1104 64.0146 90.1348ZM71.1514 97.1074H72.2178V90.7363H74.2549V89.8066H72.2178V84.9531H71.1514V97.1074ZM81.2139 86.2246H75.7041V87.1133H80.1475C80.0996 87.8584 79.9766 88.5762 79.7578 89.2598L75.0889 89.5742L75.2666 90.5176L79.4297 90.1211C78.6914 91.7549 77.3174 93.1631 75.0342 94.2773L75.6357 95.0977C80.0107 92.9443 81.207 89.7314 81.2139 86.2246ZM83.251 97.1074H84.3174V90.8047H86.2861V89.9023H84.3174V84.9531H83.251V97.1074ZM97.0322 84.9531H95.9521V97.1348H97.0322V84.9531ZM87.4619 90.1348C87.4688 92.7256 88.7539 94.3662 90.5654 94.3594C92.3701 94.3662 93.6758 92.7256 93.6689 90.1348C93.6758 87.5508 92.3701 85.9033 90.5654 85.8965C88.7539 85.9033 87.4688 87.5508 87.4619 90.1348ZM88.501 90.1348C88.501 88.1592 89.3486 86.8604 90.5654 86.8535C91.7891 86.8604 92.6299 88.1592 92.6299 90.1348C92.6299 92.1104 91.7891 93.4092 90.5654 93.4023C89.3486 93.4092 88.501 92.1104 88.501 90.1348ZM100.819 85.7188H99.7529V91.3516H105.468V85.7188H104.401V87.6055H100.819V85.7188ZM100.819 90.4629V88.4531H104.401V90.4629H100.819ZM100.983 94.8379C100.977 96.2598 102.535 97.0801 105.085 97.0801C107.628 97.0801 109.173 96.2598 109.187 94.8379C109.173 93.3887 107.628 92.5684 105.085 92.5547C102.535 92.5684 100.977 93.3887 100.983 94.8379ZM102.063 94.8379C102.063 93.9287 103.191 93.4092 105.085 93.4023C106.972 93.4092 108.12 93.9287 108.12 94.8379C108.12 95.6992 106.972 96.2324 105.085 96.2324C103.191 96.2324 102.063 95.6992 102.063 94.8379ZM108.079 92.3359H109.146V84.9668H108.079V92.3359ZM118.907 86.8672V85.6504H117.841V86.9082C117.827 88.7949 116.583 90.4082 114.71 91.0645L115.298 91.9395C116.768 91.3857 117.875 90.2578 118.395 88.8018C118.921 90.0801 119.974 91.0713 121.313 91.5703L121.915 90.7363C120.131 90.1279 118.894 88.6035 118.907 86.8672ZM116.692 94.8105C116.686 96.2598 118.237 97.0801 120.767 97.0801C123.289 97.0801 124.841 96.2598 124.841 94.8105C124.841 93.3477 123.289 92.5068 120.767 92.5137C118.237 92.5068 116.686 93.3477 116.692 94.8105ZM117.759 94.8105C117.752 93.9014 118.9 93.3613 120.767 93.3613C122.626 93.3613 123.774 93.9014 123.774 94.8105C123.774 95.6924 122.626 96.2256 120.767 96.2188C118.9 96.2256 117.752 95.6924 117.759 94.8105ZM121.013 88.4531H123.72V92.1582H124.8V84.9531H123.72V87.5645H121.013V88.4531ZM138.13 87.0859H136.325V84.9531H135.259V92.8008H136.325V90.5586H138.13V89.6562H136.325V87.9746H138.13V87.0859ZM126.851 87.1953H134.097V86.3477H131.007V84.8574H129.94V86.3477H126.851V87.1953ZM127.548 89.9707C127.541 91.2832 128.71 92.124 130.474 92.1172C132.217 92.124 133.386 91.2832 133.399 89.9707C133.386 88.6719 132.217 87.8311 130.474 87.8242C128.71 87.8311 127.541 88.6719 127.548 89.9707ZM128.505 94.9883C128.498 96.3076 130.002 97.0801 132.483 97.0801C134.958 97.0801 136.462 96.3076 136.462 94.9883C136.462 93.6621 134.958 92.8896 132.483 92.8828C130.002 92.8896 128.498 93.6621 128.505 94.9883ZM128.573 89.9707C128.566 89.1709 129.325 88.6445 130.474 88.6309C131.608 88.6445 132.374 89.1709 132.388 89.9707C132.374 90.7705 131.608 91.2832 130.474 91.2832C129.325 91.2832 128.566 90.7705 128.573 89.9707ZM129.571 94.9883C129.558 94.1816 130.665 93.7305 132.483 93.7305C134.295 93.7305 135.402 94.1816 135.396 94.9883C135.402 95.7744 134.295 96.2529 132.483 96.2461C130.665 96.2529 129.558 95.7744 129.571 94.9883ZM144.46 85.1719C141.746 85.1719 140.153 85.917 140.153 87.2637C140.153 88.6445 141.746 89.3896 144.46 89.3965C147.16 89.3896 148.746 88.6445 148.753 87.2637C148.746 85.917 147.16 85.1719 144.46 85.1719ZM138.923 91.0918H149.997V90.2168H138.923V91.0918ZM140.263 92.9648H147.522V94.0723H140.29V96.9707H148.944V96.123H141.356V94.8652H148.575V92.1445H140.263V92.9648ZM141.274 87.2637C141.261 86.4639 142.443 85.9854 144.46 85.9785C146.477 85.9854 147.652 86.4639 147.659 87.2637C147.652 88.1113 146.477 88.5762 144.46 88.5762C142.443 88.5762 141.261 88.1113 141.274 87.2637ZM163.942 84.9531H162.876V97.1074H163.942V90.668H165.979V89.7383H163.942V84.9531ZM155.042 94.1953H160.729V85.9922H159.663V89.2051H156.108V85.9922H155.042V94.1953ZM156.108 93.293V90.0664H159.663V93.293H156.108ZM176.138 84.9531H175.071V92.4316H176.138V89.0137H177.97V88.125H176.138V84.9531ZM167.21 91.5977H168.126C170.642 91.6113 172.043 91.5635 173.718 91.2559L173.595 90.3945C171.995 90.668 170.648 90.7295 168.276 90.7227V89.1094H172.569V88.248H168.276V86.6895H172.802V85.8145H167.21V91.5977ZM168.235 94.9199C168.222 96.3008 169.76 97.0801 172.269 97.0801C174.757 97.0801 176.274 96.3008 176.274 94.9199C176.274 93.5322 174.757 92.7393 172.269 92.7461C169.76 92.7393 168.222 93.5322 168.235 94.9199ZM169.302 94.9199C169.295 94.0859 170.409 93.5938 172.269 93.5938C174.094 93.5938 175.215 94.0859 175.208 94.9199C175.215 95.7471 174.094 96.2529 172.269 96.2461C170.409 96.2529 169.295 95.7471 169.302 94.9199ZM184.272 85.7461C181.736 85.7529 179.829 87.0791 179.829 89.082C179.829 91.1055 181.736 92.4316 184.272 92.418C186.809 92.4316 188.716 91.1055 188.716 89.082C188.716 87.0791 186.809 85.7529 184.272 85.7461ZM178.735 95.4941H189.864V94.5918H178.735V95.4941ZM180.854 89.082C180.841 87.626 182.311 86.6143 184.272 86.6211C186.221 86.6143 187.677 87.626 187.677 89.082C187.677 90.5586 186.221 91.543 184.272 91.543C182.311 91.543 180.841 90.5586 180.854 89.082ZM201.964 94.7012H196.892V92.4043H200.843V91.5156H193.296V89.5332H200.556V85.8555H192.202V86.7441H199.503V88.6582H192.229V92.4043H195.839V94.7012H190.835V95.6035H201.964V94.7012ZM215.854 84.9531H214.788V97.1348H215.854V90.668H217.892V89.7656H215.854V84.9531ZM206.981 94.0859H207.938C210.249 94.0859 211.842 94.0176 213.749 93.6758L213.612 92.7461C211.801 93.0811 210.249 93.1768 208.048 93.1836V87.0312H212.655V86.1426H206.981V94.0859ZM229.663 91.6934H218.534V92.582H229.663V91.6934ZM219.942 86.2383H227.147V87.5645H219.983V90.5723H228.487V89.7246H221.05V88.3711H228.228V85.377H219.942V86.2383ZM220.011 96.8477H228.487V95.9453H221.091V93.5391H220.011V96.8477ZM245.276 91.8848H234.147V92.7734H237.032V97.1074H238.14V92.7734H241.257V97.1074H242.337V92.7734H245.276V91.8848ZM235.405 88.0977C235.412 89.7178 237.128 90.7295 239.685 90.7227C242.234 90.7295 243.964 89.7178 243.964 88.0977C243.964 86.4775 242.234 85.4521 239.685 85.4453C237.128 85.4521 235.412 86.4775 235.405 88.0977ZM236.513 88.0977C236.499 87.0176 237.791 86.3203 239.685 86.3203C241.578 86.3203 242.863 87.0176 242.87 88.0977C242.863 89.1709 241.578 89.8613 239.685 89.8613C237.791 89.8613 236.499 89.1709 236.513 88.0977ZM256.337 84.9531H255.257V89.3828H252.591V90.2715H255.257V97.1348H256.337V84.9531ZM246.151 93.8672L246.808 94.7012C248.195 93.9766 249.398 92.4111 249.945 90.6064C250.499 92.3018 251.668 93.7715 253.056 94.4551L253.698 93.5938C251.928 92.7871 250.479 90.5859 250.472 88.5625V87.0996H253.261V86.2109H246.616V87.0996H249.392V88.5625C249.385 90.7227 247.915 93.0127 246.151 93.8672ZM262.339 85.8418C260.418 85.8486 259.051 87.0107 259.058 88.6992C259.051 90.3945 260.418 91.5498 262.339 91.5566C264.246 91.5498 265.6 90.3945 265.606 88.6992C265.6 87.0107 264.246 85.8486 262.339 85.8418ZM258.429 93.5391L258.579 94.4551C260.767 94.4551 263.754 94.4414 266.536 93.9219L266.454 93.1289C263.768 93.5254 260.671 93.5459 258.429 93.5391ZM260.11 88.6992C260.104 87.5713 261.04 86.7852 262.339 86.7852C263.624 86.7852 264.561 87.5713 264.554 88.6992C264.561 89.834 263.624 90.6133 262.339 90.6133C261.04 90.6133 260.104 89.834 260.11 88.6992ZM267.261 97.1348H268.327V84.9531H267.261V97.1348ZM277.241 85.8965C275.443 85.9033 274.186 87.5508 274.192 90.1348C274.186 92.7256 275.443 94.3662 277.241 94.3594C278.417 94.3662 279.36 93.6484 279.866 92.418H282.983V97.1348H284.05V84.9531H282.983V87.6738H279.791C279.265 86.5527 278.355 85.9033 277.241 85.8965ZM275.218 90.1348C275.225 88.1592 276.045 86.8604 277.241 86.8535C278.431 86.8604 279.265 88.1592 279.265 90.1348C279.265 92.1104 278.431 93.4092 277.241 93.4023C276.045 93.4092 275.225 92.1104 275.218 90.1348ZM280.099 88.5762H282.983V91.5293H280.14C280.229 91.1055 280.276 90.6338 280.276 90.1348C280.276 89.5674 280.215 89.0479 280.099 88.5762ZM296.396 84.9531H295.37V88.2754H293.743V85.1992H292.731V92.2129H293.743V89.1641H295.37V92.6504H296.396V84.9531ZM286.005 87.2773H292.239V86.416H289.669V85.0488H288.603V86.416H286.005V87.2773ZM286.538 90.0117C286.531 91.2627 287.604 92.0762 289.136 92.0762C290.674 92.0762 291.74 91.2627 291.747 90.0117C291.74 88.7402 290.674 87.9268 289.136 87.9336C287.604 87.9268 286.531 88.7402 286.538 90.0117ZM287.495 90.0117C287.495 89.2393 288.165 88.7266 289.136 88.7266C290.106 88.7266 290.776 89.2393 290.776 90.0117C290.776 90.7568 290.106 91.2695 289.136 91.2695C288.165 91.2695 287.495 90.7568 287.495 90.0117ZM288.302 94.9883C288.288 96.3213 289.812 97.0801 292.376 97.0801C294.933 97.0801 296.457 96.3213 296.464 94.9883C296.457 93.6211 294.933 92.8555 292.376 92.8555C289.812 92.8555 288.288 93.6211 288.302 94.9883ZM289.368 94.9883C289.354 94.1543 290.482 93.6895 292.376 93.7031C294.263 93.6895 295.384 94.1543 295.397 94.9883C295.384 95.7744 294.263 96.2529 292.376 96.2461C290.482 96.2529 289.354 95.7744 289.368 94.9883ZM103.068 106.953H101.988V119.107H103.068V106.953ZM93.1699 115.949L93.7578 116.824C97.832 114.869 99.459 111.772 99.4727 108.279H93.7305V109.154H98.3789C98.1396 112.06 96.458 114.391 93.1699 115.949ZM116.234 113.652H111.189V112.367H115.059V111.506H107.621V110.207H114.799V107.268H106.514V108.143H113.719V109.4H106.555V112.367H110.137V113.652H105.105V114.541H116.234V113.652ZM106.35 116.346H113.787V118.998H114.867V115.471H106.35V116.346ZM122.756 107.172C120.042 107.172 118.449 107.917 118.449 109.264C118.449 110.645 120.042 111.39 122.756 111.396C125.456 111.39 127.042 110.645 127.049 109.264C127.042 107.917 125.456 107.172 122.756 107.172ZM117.219 113.092H128.293V112.217H117.219V113.092ZM118.559 114.965H125.818V116.072H118.586V118.971H127.24V118.123H119.652V116.865H126.871V114.145H118.559V114.965ZM119.57 109.264C119.557 108.464 120.739 107.985 122.756 107.979C124.772 107.985 125.948 108.464 125.955 109.264C125.948 110.111 124.772 110.576 122.756 110.576C120.739 110.576 119.557 110.111 119.57 109.264ZM143.961 116.66H138.889V114.035H142.594V107.814H141.541V110.016H135.225V107.814H134.145V114.035H137.836V116.66H132.832V117.549H143.961V116.66ZM135.225 113.16V110.891H141.541V113.16H135.225ZM154.68 108.184H146.107V109.072H153.6V109.4C153.593 110.856 153.593 112.559 153.135 114.883L154.229 115.006C154.666 112.559 154.666 110.891 154.68 109.4V108.184ZM144.932 117.385H156.006V116.496H150.332V112.148H149.279V116.496H144.932V117.385ZM170.922 106.953H169.869V111.902H168.119V107.227H167.107V118.479H168.119V112.818H169.869V119.107H170.922V106.953ZM161.16 115.963H161.912C163.252 115.963 164.646 115.874 166.342 115.566L166.205 114.609C164.729 114.91 163.43 114.999 162.227 115.006V108.443H161.16V115.963ZM179.426 107.896C177.628 107.903 176.37 109.551 176.377 112.135C176.37 114.726 177.628 116.366 179.426 116.359C180.602 116.366 181.545 115.648 182.051 114.418H185.168V119.135H186.234V106.953H185.168V109.674H181.976C181.449 108.553 180.54 107.903 179.426 107.896ZM177.402 112.135C177.409 110.159 178.229 108.86 179.426 108.854C180.615 108.86 181.449 110.159 181.449 112.135C181.449 114.11 180.615 115.409 179.426 115.402C178.229 115.409 177.409 114.11 177.402 112.135ZM182.283 110.576H185.168V113.529H182.324C182.413 113.105 182.461 112.634 182.461 112.135C182.461 111.567 182.399 111.048 182.283 110.576ZM198.58 106.953H197.555V110.275H195.928V107.199H194.916V114.213H195.928V111.164H197.555V114.65H198.58V106.953ZM188.189 109.277H194.424V108.416H191.854V107.049H190.787V108.416H188.189V109.277ZM188.723 112.012C188.716 113.263 189.789 114.076 191.32 114.076C192.858 114.076 193.925 113.263 193.932 112.012C193.925 110.74 192.858 109.927 191.32 109.934C189.789 109.927 188.716 110.74 188.723 112.012ZM189.68 112.012C189.68 111.239 190.35 110.727 191.32 110.727C192.291 110.727 192.961 111.239 192.961 112.012C192.961 112.757 192.291 113.27 191.32 113.27C190.35 113.27 189.68 112.757 189.68 112.012ZM190.486 116.988C190.473 118.321 191.997 119.08 194.561 119.08C197.117 119.08 198.642 118.321 198.648 116.988C198.642 115.621 197.117 114.855 194.561 114.855C191.997 114.855 190.473 115.621 190.486 116.988ZM191.553 116.988C191.539 116.154 192.667 115.689 194.561 115.703C196.447 115.689 197.568 116.154 197.582 116.988C197.568 117.774 196.447 118.253 194.561 118.246C192.667 118.253 191.539 117.774 191.553 116.988ZM210.775 106.953H209.736V119.107H210.775V106.953ZM200.508 112.203C200.515 114.787 201.54 116.435 203.119 116.428C204.616 116.435 205.635 114.951 205.737 112.586H207.303V118.492H208.328V107.213H207.303V111.697H205.73C205.594 109.407 204.596 107.985 203.119 107.979C201.54 107.985 200.515 109.619 200.508 112.203ZM201.52 112.203C201.506 110.228 202.135 108.99 203.119 108.99C204.11 108.99 204.739 110.228 204.732 112.203C204.739 114.172 204.11 115.416 203.119 115.402C202.135 115.416 201.506 114.172 201.52 112.203ZM220.113 109.482V109.264H222.861V108.402H220.141V106.898H219.061V108.402H216.312V109.264H219.061V109.482C219.054 111.109 217.782 112.518 215.971 113.064L216.504 113.912C217.953 113.447 219.074 112.449 219.601 111.164C220.141 112.333 221.228 113.242 222.629 113.68L223.135 112.832C221.337 112.299 220.12 110.973 220.113 109.482ZM217.803 118.943H225.473V114.719H217.803V118.943ZM218.855 118.068V115.566H224.406V118.068H218.855ZM224.406 114.158H225.473V110.945H227.305V110.043H225.473V106.953H224.406V114.158ZM237.818 108.184H229.246V109.072H236.738V109.4C236.731 110.856 236.731 112.559 236.273 114.883L237.367 115.006C237.805 112.559 237.805 110.891 237.818 109.4V108.184ZM228.07 117.385H239.145V116.496H233.471V112.148H232.418V116.496H228.07V117.385ZM246.24 109.059H243.738V107.322H242.672V109.059H240.143V109.934H246.24V109.059ZM240.58 113.516C240.58 115.149 241.681 116.298 243.191 116.305C244.723 116.298 245.816 115.149 245.83 113.516C245.816 111.902 244.723 110.761 243.191 110.754C241.681 110.761 240.58 111.902 240.58 113.516ZM241.537 113.516C241.537 112.449 242.228 111.67 243.191 111.656C244.162 111.67 244.873 112.449 244.873 113.516C244.873 114.596 244.162 115.368 243.191 115.361C242.228 115.368 241.537 114.596 241.537 113.516ZM246.869 118.506H247.881V112.969H249.494V119.107H250.52V106.953H249.494V112.08H247.881V107.254H246.869V118.506ZM263.398 116.646H260.637V113.338C261.642 112.798 262.25 111.937 262.25 110.85C262.25 108.97 260.404 107.732 257.807 107.719C255.209 107.732 253.363 108.97 253.363 110.85C253.363 111.957 253.992 112.832 255.031 113.372V116.646H252.27V117.549H263.398V116.646ZM254.402 110.85C254.396 109.489 255.811 108.594 257.807 108.607C259.782 108.594 261.211 109.489 261.211 110.85C261.211 112.21 259.782 113.119 257.807 113.119C255.811 113.119 254.396 112.21 254.402 110.85ZM256.084 116.646V113.762C256.604 113.898 257.185 113.967 257.807 113.967C258.442 113.967 259.03 113.892 259.557 113.755V116.646H256.084ZM266.338 108.102H264.998L265.094 115.211H266.242L266.338 108.102ZM264.793 117.193C264.779 117.679 265.189 118.075 265.668 118.082C266.153 118.075 266.55 117.679 266.543 117.193C266.55 116.715 266.153 116.318 265.668 116.318C265.189 116.318 264.779 116.715 264.793 117.193Z" fill="#7F7D8A"/>
</svg>
