<svg width="226" height="124" viewBox="0 0 226 124" fill="none" xmlns="http://www.w3.org/2000/svg">
<path d="M40.8242 7.67969C37.7422 7.69141 35.5859 10.5156 35.5977 14.9453C35.5859 19.3867 37.7422 22.1992 40.8242 22.1875C42.8398 22.1992 44.457 20.9688 45.3242 18.8594H50.668V26.9453H52.4961V6.0625H50.668V10.7266H45.1953C44.293 8.80469 42.7344 7.69141 40.8242 7.67969ZM37.3555 14.9453C37.3672 11.5586 38.7734 9.33203 40.8242 9.32031C42.8633 9.33203 44.293 11.5586 44.293 14.9453C44.293 18.332 42.8633 20.5586 40.8242 20.5469C38.7734 20.5586 37.3672 18.332 37.3555 14.9453ZM45.7227 12.2734H50.668V17.3359H45.793C45.9453 16.6094 46.0273 15.8008 46.0273 14.9453C46.0273 13.9727 45.9219 13.082 45.7227 12.2734ZM73.6602 6.0625H71.9023V11.7578H69.1133V6.48438H67.3789V18.5078H69.1133V13.2812H71.9023V19.2578H73.6602V6.0625ZM55.8477 10.0469H66.5352V8.57031H62.1289V6.22656H60.3008V8.57031H55.8477V10.0469ZM56.7617 14.7344C56.75 16.8789 58.5898 18.2734 61.2148 18.2734C63.8516 18.2734 65.6797 16.8789 65.6914 14.7344C65.6797 12.5547 63.8516 11.1602 61.2148 11.1719C58.5898 11.1602 56.75 12.5547 56.7617 14.7344ZM58.4023 14.7344C58.4023 13.4102 59.5508 12.5312 61.2148 12.5312C62.8789 12.5312 64.0273 13.4102 64.0273 14.7344C64.0273 16.0117 62.8789 16.8906 61.2148 16.8906C59.5508 16.8906 58.4023 16.0117 58.4023 14.7344ZM59.7852 23.2656C59.7617 25.5508 62.375 26.8516 66.7695 26.8516C71.1523 26.8516 73.7656 25.5508 73.7773 23.2656C73.7656 20.9219 71.1523 19.6094 66.7695 19.6094C62.375 19.6094 59.7617 20.9219 59.7852 23.2656ZM61.6133 23.2656C61.5898 21.8359 63.5234 21.0391 66.7695 21.0625C70.0039 21.0391 71.9258 21.8359 71.9492 23.2656C71.9258 24.6133 70.0039 25.4336 66.7695 25.4219C63.5234 25.4336 61.5898 24.6133 61.6133 23.2656ZM100.613 8.45312H93.1133V5.94531H91.3086V8.45312H83.7148V9.97656H100.613V8.45312ZM82.7305 21.0859H91.3086V26.9453H93.1133V21.0859H101.809V19.5625H82.7305V21.0859ZM85.4258 14.6641C85.4023 16.8672 87.957 18.1094 92.2227 18.1328C96.4531 18.1094 99.0078 16.8672 99.0195 14.6641C99.0078 12.4141 96.4531 11.1719 92.2227 11.1719C87.957 11.1719 85.4023 12.4141 85.4258 14.6641ZM87.3242 14.6641C87.3008 13.3516 89.1172 12.5898 92.2227 12.5781C95.293 12.5898 97.0977 13.3516 97.1211 14.6641C97.0977 15.9531 95.293 16.7148 92.2227 16.7031C89.1172 16.7148 87.3008 15.9531 87.3242 14.6641ZM116.434 12.8594V11.1953H121.168V9.69531H116.48V6.46094H114.629V9.69531H109.871V11.1953H114.652V12.8594C114.641 16.4453 112.367 20.0078 109.309 21.4375L110.363 22.8672C112.73 21.7188 114.664 19.3047 115.578 16.3984C116.445 19.082 118.262 21.3672 120.559 22.4922L121.637 21.0625C118.613 19.6094 116.445 16.1992 116.434 12.8594ZM123.793 26.8984H125.621V16.1875H129.113V14.6172H125.621V6.0625H123.793V26.8984ZM149.223 15.9766H139.918V11.7578H138.113V15.9766H130.262V17.5H149.223V15.9766ZM132.277 21.4141H144.934V26.8984H146.809V19.8906H132.277V21.4141ZM132.512 8.71094H144.98V8.78125C144.98 10.3516 144.98 12.0273 144.441 14.3594L146.293 14.5469C146.797 12.168 146.797 10.3867 146.809 8.78125V7.21094H132.512V8.71094ZM157.918 12.8594V11.1953H162.652V9.69531H157.965V6.46094H156.113V9.69531H151.355V11.1953H156.137V12.8594C156.125 16.4453 153.852 20.0078 150.793 21.4375L151.848 22.8672C154.215 21.7188 156.148 19.3047 157.062 16.3984C157.93 19.082 159.746 21.3672 162.043 22.4922L163.121 21.0625C160.098 19.6094 157.93 16.1992 157.918 12.8594ZM165.277 26.8984H167.105V16.1875H170.598V14.6172H167.105V6.0625H165.277V26.8984ZM190.707 15.9766H181.402V11.7578H179.598V15.9766H171.746V17.5H190.707V15.9766ZM173.762 21.4141H186.418V26.8984H188.293V19.8906H173.762V21.4141ZM173.996 8.71094H186.465V8.78125C186.465 10.3516 186.465 12.0273 185.926 14.3594L187.777 14.5469C188.281 12.168 188.281 10.3867 188.293 8.78125V7.21094H173.996V8.71094ZM21.0664 38.0625H19.2383V49.1719H21.0664V44.1562H23.8086V42.6094H21.0664V38.0625ZM4.19141 46.5469L5.19922 47.8594C6.79297 46.9688 7.76562 45.3984 8.30469 43.7461C8.76172 45.4336 9.64062 47.1211 11.2461 48.0938C12.8164 47.1445 13.6953 45.5273 14.1641 43.8633C14.6914 45.5156 15.6641 47.0039 17.293 47.8594L18.3008 46.5469C15.8984 45.3164 14.9844 42.6094 14.9727 40.4062V38.9531H13.6602V38.9766H13.2617V40.4297C13.2617 42.0352 12.8281 44.4141 11.2578 45.9961C9.64062 44.3672 9.21875 41.9414 9.20703 40.4062V38.9531H7.47266V40.4062C7.46094 42.3633 6.54688 45.2109 4.19141 46.5469ZM7.16797 51.8438H21.9336V50.3906H15.4883V48.3047H13.6602V50.3906H7.16797V51.8438ZM8.45703 55.8281C8.43359 57.8086 10.6836 58.8516 14.5742 58.8516C18.3945 58.8516 20.6445 57.8086 20.6445 55.8281C20.6445 53.918 18.3945 52.8398 14.5742 52.8281C10.6836 52.8398 8.43359 53.918 8.45703 55.8281ZM10.2852 55.8281C10.2617 54.7969 11.7969 54.1875 14.5742 54.1641C17.2695 54.1875 18.8398 54.7969 18.8398 55.8281C18.8398 56.918 17.2695 57.5156 14.5742 57.4922C11.7969 57.5156 10.2617 56.918 10.2852 55.8281ZM42.2773 38.0625H40.4258V58.9453H42.2773V38.0625ZM25.8711 46.9453C25.8828 51.3867 28.0859 54.1992 31.1914 54.1875C34.2852 54.1992 36.5234 51.3867 36.5117 46.9453C36.5234 42.5156 34.2852 39.6914 31.1914 39.6797C28.0859 39.6914 25.8828 42.5156 25.8711 46.9453ZM27.6523 46.9453C27.6523 43.5586 29.1055 41.332 31.1914 41.3203C33.2891 41.332 34.7305 43.5586 34.7305 46.9453C34.7305 50.332 33.2891 52.5586 31.1914 52.5469C29.1055 52.5586 27.6523 50.332 27.6523 46.9453ZM62.6914 44.3906H50.2461V38.8359H48.418V45.8672H62.6914V44.3906ZM45.8164 50.2031H64.8945V48.7031H45.8164V50.2031ZM48.3008 58.3828H62.8086V56.8594H50.1289V52.3359H48.3008V58.3828ZM92.2461 45.9141H89.2227V37.8281H86.2227V59.1094H89.2227V48.3516H92.2461V45.9141ZM73.0742 53.9062H74.9258C78.0664 53.9062 81.5234 53.7188 85.0977 52.9922L84.793 50.5078C81.7109 51.1289 78.7812 51.3867 76.0508 51.4336V39.8672H73.0742V53.9062ZM104.012 39.5859H93.7695V49.8281H104.012V39.5859ZM96.2305 58.7812H110.832V56.3906H99.207V51.8672H96.2305V58.7812ZM96.7227 47.4844V41.9766H101.059V47.4844H96.7227ZM107.059 53.3906H110.059V46.4297H112.941V43.9688H110.059V37.8281H107.059V53.3906ZM120.793 39.2578C117.43 39.2461 114.852 41.4258 114.863 44.4844C114.852 47.5547 117.43 49.7227 120.793 49.7344C124.18 49.7227 126.688 47.5547 126.699 44.4844C126.688 41.4258 124.18 39.2461 120.793 39.2578ZM113.973 52.4062L114.324 54.8438C118.051 54.8438 123.113 54.8086 127.848 53.8828L127.613 51.7266C123.055 52.3711 117.781 52.418 113.973 52.4062ZM117.84 44.4844C117.828 42.8203 119.105 41.8359 120.793 41.8359C122.492 41.8359 123.781 42.8203 123.793 44.4844C123.781 46.1719 122.492 47.1445 120.793 47.1328C119.105 47.1445 117.828 46.1719 117.84 44.4844ZM128.832 59.2031H131.809V37.8281H128.832V59.2031ZM145.895 39.3281C142.625 39.3281 140.258 42.2695 140.27 46.9219C140.258 51.6094 142.625 54.5391 145.895 54.5391C149.152 54.5391 151.508 51.6094 151.52 46.9219C151.508 42.2695 149.152 39.3281 145.895 39.3281ZM143.152 46.9219C143.152 43.7578 144.266 42.0234 145.895 42.0234C147.559 42.0234 148.648 43.7578 148.66 46.9219C148.648 50.0977 147.559 51.832 145.895 51.8203C144.266 51.832 143.152 50.0977 143.152 46.9219ZM153.98 59.1562H156.98V48.3516H160.121V45.8672H156.98V37.8281H153.98V59.1562ZM172.027 39.8672H162.137V42.2578H169.039C168.969 43.2656 168.816 44.2266 168.594 45.1289L161.012 45.5859L161.387 48.1406L167.691 47.5547C166.484 49.9219 164.363 51.9023 160.801 53.6719L162.441 55.9219C170.41 51.9258 172.004 46.4531 172.027 39.8672ZM174.723 59.1094H177.723V48.4688H180.746V46.0078H177.723V37.8281H174.723V59.1094ZM199.496 37.8281H196.473V59.2031H199.496V37.8281ZM182.27 46.9219C182.258 51.6094 184.637 54.5391 187.918 54.5391C191.129 54.5391 193.52 51.6094 193.52 46.9219C193.52 42.2695 191.129 39.3281 187.918 39.3281C184.637 39.3281 182.258 42.2695 182.27 46.9219ZM185.152 46.9219C185.141 43.7578 186.254 42.0234 187.918 42.0234C189.535 42.0234 190.625 43.7578 190.637 46.9219C190.625 50.0977 189.535 51.832 187.918 51.8203C186.254 51.832 185.141 50.0977 185.152 46.9219ZM206.41 39.1172H203.457V49.2422H213.863V39.1172H210.887V41.9297H206.41V39.1172ZM205.637 55.0781C205.625 57.668 208.438 59.168 212.973 59.1562C217.484 59.168 220.285 57.668 220.309 55.0781C220.285 52.4648 217.484 50.9414 212.973 50.9297C208.438 50.9414 205.625 52.4648 205.637 55.0781ZM206.41 46.875V44.2266H210.887V46.875H206.41ZM208.637 55.0781C208.637 53.8242 210.102 53.2148 212.973 53.2266C215.82 53.2148 217.344 53.8242 217.355 55.0781C217.344 56.2383 215.82 56.8828 212.973 56.8828C210.102 56.8828 208.637 56.2383 208.637 55.0781ZM217.238 50.6016H220.238V37.8516H217.238V50.6016Z" fill="#292733"/>
<path d="M12.2246 89.8066H10.2559V84.9531H9.18945V97.1074H10.2559V90.709H12.2246V89.8066ZM1.35547 94.0176H2.32617C4.16504 94.0176 6.05176 93.8945 8.15039 93.4707L8.01367 92.5547C6.01074 92.9785 4.19922 93.1152 2.42188 93.1152V86.1562H1.35547V94.0176ZM19.0879 86.0605H13.4688V91.6523H19.0879V86.0605ZM14.5215 90.791V86.9355H18.0488V90.791H14.5215ZM14.8496 96.8477H23.0117V95.9453H15.9023V93.0195H14.8496V96.8477ZM21.3848 93.8672H22.4512V89.5605H24.2832V88.6582H22.4512V84.9531H21.3848V93.8672ZM29.0273 85.8418C27.1064 85.8486 25.7393 87.0107 25.7461 88.6992C25.7393 90.3945 27.1064 91.5498 29.0273 91.5566C30.9346 91.5498 32.2881 90.3945 32.2949 88.6992C32.2881 87.0107 30.9346 85.8486 29.0273 85.8418ZM25.1172 93.5391L25.2676 94.4551C27.4551 94.4551 30.4424 94.4414 33.2246 93.9219L33.1426 93.1289C30.4561 93.5254 27.3594 93.5459 25.1172 93.5391ZM26.7988 88.6992C26.792 87.5713 27.7285 86.7852 29.0273 86.7852C30.3125 86.7852 31.249 87.5713 31.2422 88.6992C31.249 89.834 30.3125 90.6133 29.0273 90.6133C27.7285 90.6133 26.792 89.834 26.7988 88.6992ZM33.9492 97.1348H35.0156V84.9531H33.9492V97.1348ZM43.916 85.8965C42.1113 85.9033 40.8467 87.5508 40.8535 90.1348C40.8467 92.7256 42.1113 94.3662 43.916 94.3594C45.707 94.3662 46.9785 92.7256 46.9922 90.1348C46.9785 87.5508 45.707 85.9033 43.916 85.8965ZM41.8652 90.1348C41.8721 88.1592 42.7129 86.8604 43.916 86.8535C45.1328 86.8604 45.9531 88.1592 45.9531 90.1348C45.9531 92.1104 45.1328 93.4092 43.916 93.4023C42.7129 93.4092 41.8721 92.1104 41.8652 90.1348ZM49.002 97.1074H50.0684V90.7363H52.1055V89.8066H50.0684V84.9531H49.002V97.1074ZM59.0645 86.2246H53.5547V87.1133H57.998C57.9502 87.8584 57.8271 88.5762 57.6084 89.2598L52.9395 89.5742L53.1172 90.5176L57.2803 90.1211C56.542 91.7549 55.168 93.1631 52.8848 94.2773L53.4863 95.0977C57.8613 92.9443 59.0576 89.7314 59.0645 86.2246ZM61.1016 97.1074H62.168V90.8047H64.1367V89.9023H62.168V84.9531H61.1016V97.1074ZM74.8828 84.9531H73.8027V97.1348H74.8828V84.9531ZM65.3125 90.1348C65.3193 92.7256 66.6045 94.3662 68.416 94.3594C70.2207 94.3662 71.5264 92.7256 71.5195 90.1348C71.5264 87.5508 70.2207 85.9033 68.416 85.8965C66.6045 85.9033 65.3193 87.5508 65.3125 90.1348ZM66.3516 90.1348C66.3516 88.1592 67.1992 86.8604 68.416 86.8535C69.6396 86.8604 70.4805 88.1592 70.4805 90.1348C70.4805 92.1104 69.6396 93.4092 68.416 93.4023C67.1992 93.4092 66.3516 92.1104 66.3516 90.1348ZM78.6699 85.7188H77.6035V91.3516H83.3184V85.7188H82.252V87.6055H78.6699V85.7188ZM78.6699 90.4629V88.4531H82.252V90.4629H78.6699ZM78.834 94.8379C78.8271 96.2598 80.3857 97.0801 82.9355 97.0801C85.4785 97.0801 87.0234 96.2598 87.0371 94.8379C87.0234 93.3887 85.4785 92.5684 82.9355 92.5547C80.3857 92.5684 78.8271 93.3887 78.834 94.8379ZM79.9141 94.8379C79.9141 93.9287 81.042 93.4092 82.9355 93.4023C84.8223 93.4092 85.9707 93.9287 85.9707 94.8379C85.9707 95.6992 84.8223 96.2324 82.9355 96.2324C81.042 96.2324 79.9141 95.6992 79.9141 94.8379ZM85.9297 92.3359H86.9961V84.9668H85.9297V92.3359ZM102.623 84.9531H101.543V97.1074H102.623V84.9531ZM92.5605 93.1836L92.6836 94.0996C94.9326 94.0859 97.8652 94.0449 100.518 93.6348L100.449 92.8281C99.7998 92.9033 99.123 92.9648 98.4395 93.0127V87.168H99.8203V86.2793H92.875V87.168H94.2422V93.1699C93.6543 93.1768 93.0869 93.1836 92.5605 93.1836ZM95.2949 93.1494V87.168H97.3867V93.0742C96.6826 93.1084 95.9785 93.1357 95.2949 93.1494ZM114.49 90.8047H107.162V86.9766H114.367V86.0879H106.096V91.6934H114.49V90.8047ZM104.674 95.4531H115.803V94.5508H104.674V95.4531ZM118.77 95.084H117.443L116.691 98.8027H117.703L118.77 95.084ZM127.137 85.8965C125.339 85.9033 124.081 87.5508 124.088 90.1348C124.081 92.7256 125.339 94.3662 127.137 94.3594C128.312 94.3662 129.256 93.6484 129.762 92.418H132.879V97.1348H133.945V84.9531H132.879V87.6738H129.687C129.16 86.5527 128.251 85.9033 127.137 85.8965ZM125.113 90.1348C125.12 88.1592 125.94 86.8604 127.137 86.8535C128.326 86.8604 129.16 88.1592 129.16 90.1348C129.16 92.1104 128.326 93.4092 127.137 93.4023C125.94 93.4092 125.12 92.1104 125.113 90.1348ZM129.994 88.5762H132.879V91.5293H130.035C130.124 91.1055 130.172 90.6338 130.172 90.1348C130.172 89.5674 130.11 89.0479 129.994 88.5762ZM146.291 84.9531H145.266V88.2754H143.639V85.1992H142.627V92.2129H143.639V89.1641H145.266V92.6504H146.291V84.9531ZM135.9 87.2773H142.135V86.416H139.564V85.0488H138.498V86.416H135.9V87.2773ZM136.434 90.0117C136.427 91.2627 137.5 92.0762 139.031 92.0762C140.569 92.0762 141.636 91.2627 141.643 90.0117C141.636 88.7402 140.569 87.9268 139.031 87.9336C137.5 87.9268 136.427 88.7402 136.434 90.0117ZM137.391 90.0117C137.391 89.2393 138.061 88.7266 139.031 88.7266C140.002 88.7266 140.672 89.2393 140.672 90.0117C140.672 90.7568 140.002 91.2695 139.031 91.2695C138.061 91.2695 137.391 90.7568 137.391 90.0117ZM138.197 94.9883C138.184 96.3213 139.708 97.0801 142.271 97.0801C144.828 97.0801 146.353 96.3213 146.359 94.9883C146.353 93.6211 144.828 92.8555 142.271 92.8555C139.708 92.8555 138.184 93.6211 138.197 94.9883ZM139.264 94.9883C139.25 94.1543 140.378 93.6895 142.271 93.7031C144.158 93.6895 145.279 94.1543 145.293 94.9883C145.279 95.7744 144.158 96.2529 142.271 96.2461C140.378 96.2529 139.25 95.7744 139.264 94.9883ZM160.988 84.9531H159.922V97.1348H160.988V90.668H163.025V89.7656H160.988V84.9531ZM152.115 94.0859H153.072C155.383 94.0859 156.976 94.0176 158.883 93.6758L158.746 92.7461C156.935 93.0811 155.383 93.1768 153.182 93.1836V87.0312H157.789V86.1426H152.115V94.0859ZM174.756 90.8594H173.054C173.505 88.6924 173.505 87.1885 173.512 86.3477V85.8145H169.438V86.6895H172.445C172.438 87.5918 172.391 88.9727 171.967 90.8594H167.975C168.535 88.5488 168.535 86.9492 168.535 86.1836V85.8145H164.57V86.6895H167.489C167.462 87.585 167.373 88.9932 166.874 90.8594H163.682V91.7617H168.672V97.1211H169.738V91.7617H174.756V90.8594ZM184.791 92.6367C182.187 92.6367 180.532 93.457 180.539 94.8652C180.532 96.2598 182.187 97.0801 184.791 97.0801C187.396 97.0801 189.05 96.2598 189.057 94.8652C189.05 93.457 187.396 92.6367 184.791 92.6367ZM179.309 91.502H190.369V90.627H184.941V88.2754H183.889V90.627H179.309V91.502ZM180.621 86.457H187.895V86.6074C187.895 87.5576 187.895 88.46 187.566 89.7109L188.619 89.834C188.954 88.5762 188.954 87.5918 188.961 86.6074V85.582H180.621V86.457ZM181.605 94.8652C181.599 93.9971 182.856 93.4639 184.791 93.457C186.732 93.4639 187.977 93.9971 187.99 94.8652C187.977 95.7129 186.732 96.2324 184.791 96.2324C182.856 96.2324 181.599 95.7129 181.605 94.8652ZM200.896 84.9531H199.816V93.8535H200.896V89.5605H202.729V88.6582H200.896V84.9531ZM191.408 91.584L191.873 92.4453C195.38 91.3516 197.615 89.0273 197.615 85.8965H191.914V86.7988H196.446C196.221 88.9453 194.327 90.6748 191.408 91.584ZM193.281 96.8477H201.457V95.9453H194.348V92.9512H193.281V96.8477ZM218.096 90.7363H207.008V91.6387H218.096V90.7363ZM208.348 94.8926C208.341 96.3008 209.92 97.0801 212.545 97.0801C215.149 97.0801 216.715 96.3008 216.729 94.8926C216.715 93.498 215.149 92.7051 212.545 92.7051C209.92 92.7051 208.341 93.498 208.348 94.8926ZM208.416 89.5742H216.797V88.6992H209.469V86.3477H216.715V85.4453H208.416V89.5742ZM209.441 94.8926C209.428 94.0449 210.597 93.5527 212.545 93.5391C214.473 93.5527 215.642 94.0449 215.648 94.8926C215.642 95.7471 214.473 96.2324 212.545 96.2324C210.597 96.2324 209.428 95.7471 209.441 94.8926ZM19.0332 106.953H17.9668V119.135H19.0332V112.668H21.0703V111.766H19.0332V106.953ZM10.1602 116.086H11.1172C13.4277 116.086 15.0205 116.018 16.9277 115.676L16.791 114.746C14.9795 115.081 13.4277 115.177 11.2266 115.184V109.031H15.834V108.143H10.1602V116.086ZM33.0332 108.799H31.2285V106.953H30.1621V114.172H31.2285V112.285H33.0332V111.383H31.2285V109.688H33.0332V108.799ZM21.959 110.549C21.9521 112.237 23.3057 113.399 25.1445 113.406C26.9971 113.399 28.3301 112.237 28.3438 110.549C28.3301 108.854 26.9971 107.685 25.1445 107.691C23.3057 107.685 21.9521 108.854 21.959 110.549ZM23.0117 110.549C23.0049 109.407 23.9141 108.594 25.1445 108.607C26.3887 108.594 27.2842 109.407 27.291 110.549C27.2842 111.697 26.3887 112.49 25.1445 112.504C23.9141 112.49 23.0049 111.697 23.0117 110.549ZM23.2988 116.824C23.3057 118.239 24.8506 119.08 27.332 119.08C29.8135 119.08 31.3379 118.239 31.3379 116.824C31.3379 115.382 29.8135 114.548 27.332 114.541C24.8506 114.548 23.3057 115.382 23.2988 116.824ZM24.3789 116.824C24.3652 115.942 25.5 115.416 27.332 115.416C29.1709 115.416 30.292 115.942 30.2988 116.824C30.292 117.699 29.1709 118.212 27.332 118.219C25.5 118.212 24.3652 117.699 24.3789 116.824ZM43.3281 106.967H42.2617V116.072H43.3281V111.875H45.1602V110.973H43.3281V106.967ZM33.8535 109.332H41.0996V108.457H38.0098V106.967H36.9434V108.457H33.8535V109.332ZM34.5508 112.271C34.5439 113.639 35.7197 114.521 37.4766 114.514C39.2129 114.521 40.3887 113.639 40.4023 112.271C40.3887 110.891 39.2129 110.002 37.4766 110.002C35.7197 110.002 34.5439 110.891 34.5508 112.271ZM35.5762 112.271C35.5693 111.403 36.3281 110.843 37.4766 110.85C38.6113 110.843 39.377 111.403 39.3906 112.271C39.377 113.126 38.6113 113.68 37.4766 113.666C36.3281 113.68 35.5693 113.126 35.5762 112.271ZM35.7266 118.848H43.8887V117.945H36.7793V115.348H35.7266V118.848ZM55.0449 114.596C52.543 114.596 51.0186 115.416 51.0117 116.838C51.0186 118.273 52.543 119.094 55.0449 119.107C57.54 119.094 59.0508 118.273 59.0508 116.838C59.0508 115.416 57.54 114.596 55.0449 114.596ZM49.959 113.324H55.6191V107.719H54.5527V109.578H51.0117V107.719H49.959V113.324ZM51.0117 112.449V110.426H54.5527V112.449H51.0117ZM52.0918 116.838C52.0781 115.97 53.2129 115.457 55.0449 115.443C56.8838 115.457 58.0049 115.97 58.0117 116.838C58.0049 117.713 56.8838 118.232 55.0449 118.232C53.2129 118.232 52.0781 117.713 52.0918 116.838ZM57.875 114.268H58.9414V110.932H60.7734V110.016H58.9414V106.953H57.875V114.268ZM65.8457 108.717V107.555H64.752V108.717C64.752 110.556 63.4805 112.237 61.6621 112.914L62.2227 113.762C63.6514 113.208 64.7725 112.073 65.3057 110.631C65.8525 111.978 66.9668 113.023 68.375 113.543L68.9219 112.695C67.1172 112.066 65.832 110.487 65.8457 108.717ZM63.3984 115.771H70.5078V119.107H71.5742V114.883H63.3984V115.771ZM70.5078 114.281H71.5742V106.953H70.5078V114.281ZM79.1758 107.746C76.6396 107.753 74.7324 109.079 74.7324 111.082C74.7324 113.105 76.6396 114.432 79.1758 114.418C81.7119 114.432 83.6191 113.105 83.6191 111.082C83.6191 109.079 81.7119 107.753 79.1758 107.746ZM73.6387 117.494H84.7676V116.592H73.6387V117.494ZM75.7578 111.082C75.7441 109.626 77.2139 108.614 79.1758 108.621C81.124 108.614 82.5801 109.626 82.5801 111.082C82.5801 112.559 81.124 113.543 79.1758 113.543C77.2139 113.543 75.7441 112.559 75.7578 111.082ZM96.8672 116.701H91.7949V114.404H95.7461V113.516H88.1992V111.533H95.459V107.855H87.1055V108.744H94.4062V110.658H87.1328V114.404H90.7422V116.701H85.7383V117.604H96.8672V116.701ZM104.605 107.896C102.801 107.903 101.536 109.551 101.543 112.135C101.536 114.726 102.801 116.366 104.605 116.359C106.396 116.366 107.668 114.726 107.682 112.135C107.668 109.551 106.396 107.903 104.605 107.896ZM102.555 112.135C102.562 110.159 103.402 108.86 104.605 108.854C105.822 108.86 106.643 110.159 106.643 112.135C106.643 114.11 105.822 115.409 104.605 115.402C103.402 115.409 102.562 114.11 102.555 112.135ZM109.691 119.107H110.758V112.736H112.795V111.807H110.758V106.953H109.691V119.107ZM119.754 108.225H114.244V109.113H118.688C118.64 109.858 118.517 110.576 118.298 111.26L113.629 111.574L113.807 112.518L117.97 112.121C117.231 113.755 115.857 115.163 113.574 116.277L114.176 117.098C118.551 114.944 119.747 111.731 119.754 108.225ZM121.791 119.107H122.857V112.805H124.826V111.902H122.857V106.953H121.791V119.107ZM127.26 107.719H126.193V113.352H131.908V107.719H130.842V109.605H127.26V107.719ZM127.26 112.463V110.453H130.842V112.463H127.26ZM127.424 116.838C127.417 118.26 128.976 119.08 131.525 119.08C134.068 119.08 135.613 118.26 135.627 116.838C135.613 115.389 134.068 114.568 131.525 114.555C128.976 114.568 127.417 115.389 127.424 116.838ZM128.504 116.838C128.504 115.929 129.632 115.409 131.525 115.402C133.412 115.409 134.561 115.929 134.561 116.838C134.561 117.699 133.412 118.232 131.525 118.232C129.632 118.232 128.504 117.699 128.504 116.838ZM134.52 114.336H135.586V106.967H134.52V114.336ZM143.188 107.172C140.474 107.172 138.881 107.917 138.881 109.264C138.881 110.645 140.474 111.39 143.188 111.396C145.888 111.39 147.474 110.645 147.48 109.264C147.474 107.917 145.888 107.172 143.188 107.172ZM137.65 113.092H148.725V112.217H137.65V113.092ZM138.99 114.965H146.25V116.072H139.018V118.971H147.672V118.123H140.084V116.865H147.303V114.145H138.99V114.965ZM140.002 109.264C139.988 108.464 141.171 107.985 143.188 107.979C145.204 107.985 146.38 108.464 146.387 109.264C146.38 110.111 145.204 110.576 143.188 110.576C141.171 110.576 139.988 110.111 140.002 109.264ZM163.08 112.654H155.766V108.826H162.957V107.951H154.686V113.529H158.268V116.674H153.264V117.576H164.393V116.674H159.32V113.529H163.08V112.654ZM169.027 107.746C167.127 107.76 165.78 108.908 165.787 110.604C165.78 112.135 166.881 113.222 168.494 113.413V115.519C167.318 115.553 166.19 115.56 165.213 115.566L165.391 116.469C167.53 116.482 170.401 116.455 172.979 116.018L172.91 115.211C171.851 115.348 170.709 115.43 169.574 115.478V113.413C171.153 113.208 172.261 112.128 172.268 110.604C172.261 108.908 170.894 107.76 169.027 107.746ZM166.84 110.604C166.826 109.462 167.749 108.683 169.027 108.676C170.285 108.683 171.201 109.462 171.215 110.604C171.201 111.745 170.285 112.538 169.027 112.531C167.749 112.538 166.826 111.745 166.84 110.604ZM173.689 119.107H174.756V112.9H176.738V111.971H174.756V106.953H173.689V119.107ZM187.279 112.805H179.951V108.977H187.156V108.088H178.885V113.693H187.279V112.805ZM177.463 117.453H188.592V116.551H177.463V117.453ZM199.625 106.953H198.559V109.729H196.125V110.631H198.559V113.051H196.029V113.953H198.559V119.135H199.625V106.953ZM189.986 108.949H194.279V111.506H190.027V116.291H190.93C192.871 116.291 194.43 116.223 196.371 115.922L196.275 115.02C194.43 115.307 192.919 115.375 191.094 115.375V112.381H195.332V108.061H189.986V108.949ZM212.791 116.646H210.029V113.338C211.034 112.798 211.643 111.937 211.643 110.85C211.643 108.97 209.797 107.732 207.199 107.719C204.602 107.732 202.756 108.97 202.756 110.85C202.756 111.957 203.385 112.832 204.424 113.372V116.646H201.662V117.549H212.791V116.646ZM203.795 110.85C203.788 109.489 205.203 108.594 207.199 108.607C209.175 108.594 210.604 109.489 210.604 110.85C210.604 112.21 209.175 113.119 207.199 113.119C205.203 113.119 203.788 112.21 203.795 110.85ZM205.477 116.646V113.762C205.996 113.898 206.577 113.967 207.199 113.967C207.835 113.967 208.423 113.892 208.949 113.755V116.646H205.477ZM215.73 108.102H214.391L214.486 115.211H215.635L215.73 108.102ZM214.186 117.193C214.172 117.679 214.582 118.075 215.061 118.082C215.546 118.075 215.942 117.679 215.936 117.193C215.942 116.715 215.546 116.318 215.061 116.318C214.582 116.318 214.172 116.715 214.186 117.193Z" fill="#7F7D8A"/>
</svg>
